{
    "asset" : {
        "generator" : "Khronos glTF Blender I/O v1.6.16",
        "version" : "2.0"
    },
    "scene" : 0,
    "scenes" : [
        {
            "name" : "Scene",
            "nodes" : [
                0
            ]
        }
    ],
    "nodes" : [
        {
            "mesh" : 0,
            "name" : "doubleKey",
            "rotation" : [
                0,
                -0.16659095883369446,
                0,
                0.9860261082649231
            ],
            "scale" : [
                0.8354766368865967,
                0.679024338722229,
                1
            ],
            "translation" : [
                0.9272125959396362,
                0.835729718208313,
                -2.7839040756225586
            ]
        }
    ],
    "materials" : [
        {
            "doubleSided" : true,
            "name" : "doubleKeyMaterialDark",
            "pbrMetallicRoughness" : {
                "baseColorFactor" : [
                    0.059511229395866394,
                    0.46207696199417114,
                    0.4019778072834015,
                    1
                ],
                "metallicFactor" : 0,
                "roughnessFactor" : 0.5
            }
        }
    ],
    "meshes" : [
        {
            "name" : "Sphere.002",
            "primitives" : [
                {
                    "attributes" : {
                        "POSITION" : 0,
                        "NORMAL" : 1,
                        "TEXCOORD_0" : 2
                    },
                    "indices" : 3,
                    "material" : 0
                }
            ]
        }
    ],
    "accessors" : [
        {
            "bufferView" : 0,
            "componentType" : 5126,
            "count" : 1198,
            "max" : [
                1.276685357093811,
                6.507843971252441,
                3.9138906002044678
            ],
            "min" : [
                -0.9999990463256836,
                -1,
                -1.7532589435577393
            ],
            "type" : "VEC3"
        },
        {
            "bufferView" : 1,
            "componentType" : 5126,
            "count" : 1198,
            "type" : "VEC3"
        },
        {
            "bufferView" : 2,
            "componentType" : 5126,
            "count" : 1198,
            "type" : "VEC2"
        },
        {
            "bufferView" : 3,
            "componentType" : 5123,
            "count" : 6240,
            "type" : "SCALAR"
        }
    ],
    "bufferViews" : [
        {
            "buffer" : 0,
            "byteLength" : 14376,
            "byteOffset" : 0
        },
        {
            "buffer" : 0,
            "byteLength" : 14376,
            "byteOffset" : 14376
        },
        {
            "buffer" : 0,
            "byteLength" : 9584,
            "byteOffset" : 28752
        },
        {
            "buffer" : 0,
            "byteLength" : 12480,
            "byteOffset" : 38336
        }
    ],
    "buffers" : [
        {
            "byteLength" : 50816,
            "uri" : "data:application/octet-stream;base64,"
        }
    ]
}
