{
    "asset" : {
        "generator" : "Khronos glTF Blender I/O v1.6.16",
        "version" : "2.0"
    },
    "scene" : 0,
    "scenes" : [
        {
            "name" : "Scene",
            "nodes" : [
                0,
                1
            ]
        }
    ],
    "nodes" : [
        {
            "mesh" : 0,
            "name" : "LogoTop",
            "translation" : [
                -4,
                2,
                0
            ]
        },
        {
            "mesh" : 1,
            "name" : "LogoBottom",
            "scale" : [
                12,
                2,
                2.5
            ],
            "translation" : [
                0,
                0.5,
                0
            ]
        }
    ],
    "materials" : [
        {
            "doubleSided" : true,
            "name" : "Material",
            "pbrMetallicRoughness" : {
                "baseColorFactor" : [
                    0.7912982702255249,
                    0.04091509059071541,
                    0.06124606728553772,
                    1
                ],
                "metallicFactor" : 0.25735294818878174,
                "roughnessFactor" : 0.5
            }
        },
        {
            "doubleSided" : true,
            "name" : "Material.002",
            "pbrMetallicRoughness" : {
                "baseColorFactor" : [
                    0.17434996366500854,
                    0.07063496857881546,
                    0.022479500621557236,
                    1
                ],
                "metallicFactor" : 0,
                "roughnessFactor" : 0.5
            }
        }
    ],
    "meshes" : [
        {
            "name" : "Cube.001",
            "primitives" : [
                {
                    "attributes" : {
                        "POSITION" : 0,
                        "NORMAL" : 1,
                        "TEXCOORD_0" : 2
                    },
                    "indices" : 3,
                    "material" : 0
                }
            ]
        },
        {
            "name" : "Cube.002",
            "primitives" : [
                {
                    "attributes" : {
                        "POSITION" : 4,
                        "NORMAL" : 5,
                        "TEXCOORD_0" : 6,
                        "TEXCOORD_1" : 7
                    },
                    "indices" : 8,
                    "material" : 1
                }
            ]
        }
    ],
    "accessors" : [
        {
            "bufferView" : 0,
            "componentType" : 5126,
            "count" : 4478,
            "max" : [
                8.44355583190918,
                8.43232536315918,
                0.5000001788139343
            ],
            "min" : [
                -0.5,
                -0.5,
                -0.500000536441803
            ],
            "type" : "VEC3"
        },
        {
            "bufferView" : 1,
            "componentType" : 5126,
            "count" : 4478,
            "type" : "VEC3"
        },
        {
            "bufferView" : 2,
            "componentType" : 5126,
            "count" : 4478,
            "type" : "VEC2"
        },
        {
            "bufferView" : 3,
            "componentType" : 5123,
            "count" : 6006,
            "type" : "SCALAR"
        },
        {
            "bufferView" : 4,
            "componentType" : 5126,
            "count" : 6218,
            "max" : [
                0.5,
                0.5,
                0.582691490650177
            ],
            "min" : [
                -0.5,
                -0.5,
                -0.582690417766571
            ],
            "type" : "VEC3"
        },
        {
            "bufferView" : 5,
            "componentType" : 5126,
            "count" : 6218,
            "type" : "VEC3"
        },
        {
            "bufferView" : 6,
            "componentType" : 5126,
            "count" : 6218,
            "type" : "VEC2"
        },
        {
            "bufferView" : 7,
            "componentType" : 5126,
            "count" : 6218,
            "type" : "VEC2"
        },
        {
            "bufferView" : 8,
            "componentType" : 5123,
            "count" : 7404,
            "type" : "SCALAR"
        }
    ],
    "bufferViews" : [
        {
            "buffer" : 0,
            "byteLength" : 53736,
            "byteOffset" : 0
        },
        {
            "buffer" : 0,
            "byteLength" : 53736,
            "byteOffset" : 53736
        },
        {
            "buffer" : 0,
            "byteLength" : 35824,
            "byteOffset" : 107472
        },
        {
            "buffer" : 0,
            "byteLength" : 12012,
            "byteOffset" : 143296
        },
        {
            "buffer" : 0,
            "byteLength" : 74616,
            "byteOffset" : 155308
        },
        {
            "buffer" : 0,
            "byteLength" : 74616,
            "byteOffset" : 229924
        },
        {
            "buffer" : 0,
            "byteLength" : 49744,
            "byteOffset" : 304540
        },
        {
            "buffer" : 0,
            "byteLength" : 49744,
            "byteOffset" : 354284
        },
        {
            "buffer" : 0,
            "byteLength" : 14808,
            "byteOffset" : 404028
        }
    ],
    "buffers" : [
        {
            "byteLength" : 418836,
            "uri" : "data:application/octet-stream;base64,"
        }
    ]
}
