{
    "asset" : {
        "generator" : "Khronos glTF Blender I/O v1.6.16",
        "version" : "2.0"
    },
    "scene" : 0,
    "scenes" : [
        {
            "name" : "Scene",
            "nodes" : [
                0
            ]
        }
    ],
    "nodes" : [
        {
            "mesh" : 0,
            "name" : "simpleKey",
            "scale" : [
                0.8354766368865967,
                0.679024338722229,
                1
            ],
            "translation" : [
                -7.385326385498047,
                0.8987666964530945,
                0
            ]
        }
    ],
    "materials" : [
        {
            "doubleSided" : true,
            "name" : "simpleKeyMaterial",
            "pbrMetallicRoughness" : {
                "baseColorFactor" : [
                    0,
                    0.007358147297054529,
                    0.8000000715255737,
                    1
                ],
                "metallicFactor" : 0,
                "roughnessFactor" : 0.4000000059604645
            }
        }
    ],
    "meshes" : [
        {
            "name" : "Sphere.001",
            "primitives" : [
                {
                    "attributes" : {
                        "POSITION" : 0,
                        "NORMAL" : 1,
                        "TEXCOORD_0" : 2
                    },
                    "indices" : 3,
                    "material" : 0
                }
            ]
        }
    ],
    "accessors" : [
        {
            "bufferView" : 0,
            "componentType" : 5126,
            "count" : 605,
            "max" : [
                2.184084415435791,
                6.266958713531494,
                0.999999463558197
            ],
            "min" : [
                -0.9999990463256836,
                -1,
                -3.2586264610290527
            ],
            "type" : "VEC3"
        },
        {
            "bufferView" : 1,
            "componentType" : 5126,
            "count" : 605,
            "type" : "VEC3"
        },
        {
            "bufferView" : 2,
            "componentType" : 5126,
            "count" : 605,
            "type" : "VEC2"
        },
        {
            "bufferView" : 3,
            "componentType" : 5123,
            "count" : 3156,
            "type" : "SCALAR"
        }
    ],
    "bufferViews" : [
        {
            "buffer" : 0,
            "byteLength" : 7260,
            "byteOffset" : 0
        },
        {
            "buffer" : 0,
            "byteLength" : 7260,
            "byteOffset" : 7260
        },
        {
            "buffer" : 0,
            "byteLength" : 4840,
            "byteOffset" : 14520
        },
        {
            "buffer" : 0,
            "byteLength" : 6312,
            "byteOffset" : 19360
        }
    ],
    "buffers" : [
        {
            "byteLength" : 25672,
            "uri" : "data:application/octet-stream;base64,"
        }
    ]
}
