<svg width="938" height="897" viewBox="0 0 938 897" fill="none" xmlns="http://www.w3.org/2000/svg">
<path d="M246.155 586C246.155 615.3 249.912 637.088 257.425 651.362C265.689 664.885 276.207 671.647 288.978 671.647C274.704 681.413 261.557 687.424 249.536 689.677C237.516 691.931 226.998 693.058 217.982 693.058C184.174 693.058 158.631 684.418 141.351 667.139C124.072 649.859 115.432 622.062 115.432 583.747V108.185C115.432 78.1334 111.676 56.3462 104.163 42.8231C95.8988 29.3 85.3808 22.5385 72.609 22.5385C86.8834 12.0205 100.031 5.63458 112.051 3.38072C124.072 1.1269 134.59 0 143.605 0C177.413 0 202.957 8.63974 220.236 25.9192C237.516 43.1987 246.155 70.9962 246.155 109.312V586Z" fill="black"/>
<path d="M445.348 586C445.348 615.3 449.104 637.088 456.617 651.362C464.881 664.885 475.399 671.647 488.171 671.647C473.897 681.413 460.749 687.424 448.729 689.677C436.708 691.931 426.19 693.058 417.175 693.058C383.367 693.058 357.823 684.418 340.544 667.139C323.264 649.859 314.625 622.062 314.625 583.747V108.185C314.625 78.1334 310.868 56.3462 303.355 42.8231C295.091 29.3 284.573 22.5385 271.802 22.5385C286.076 12.0205 299.223 5.63458 311.244 3.38072C323.264 1.1269 333.782 0 342.798 0C376.605 0 402.149 8.63974 419.429 25.9192C436.708 43.1987 445.348 70.9962 445.348 109.312V586Z" fill="black"/>
<path fill-rule="evenodd" clip-rule="evenodd" d="M602.036 693.717C502.811 607.79 573.244 372.36 788.455 429.75C893.976 457.889 937.147 530.139 937.147 618.446C937.147 763.225 845.279 795.608 759.108 795.608C687.627 795.608 541.053 788.625 413.402 782.542C314.942 777.851 227.74 773.696 194.938 773.696C256.109 890.23 349.665 872.897 458.826 852.672C480.109 848.729 501.987 844.676 524.333 841.483C511.609 845.903 499.537 850.158 488.042 854.209C331.609 909.34 282.004 926.822 152.604 810.18C139.408 800.078 128.8 791.249 119.708 783.682C80.3601 750.934 69.4101 741.821 0 755.399C166.282 706.344 356.472 717.046 481.374 724.075C588.784 730.119 647.913 733.446 602.036 693.717ZM819.379 720.624C863.694 695.039 866.86 617.561 826.452 547.571C786.043 477.581 717.362 441.584 673.047 467.169C628.733 492.754 625.566 570.232 665.975 640.222C706.384 710.212 775.065 746.209 819.379 720.624Z" fill="#4CB5AA"/>
</svg>
