<svg width="107" height="33" viewBox="0 0 107 33" fill="none" xmlns="http://www.w3.org/2000/svg">
<path d="M19.7261 19.6007C19.7261 20.3803 19.8469 20.9484 20.0884 21.3048C20.3518 21.6612 20.6373 21.8951 20.9446 22.0065C21.2959 22.1402 21.702 22.1625 22.1631 22.0734C22.1411 22.2738 22.0314 22.4632 21.8338 22.6414C21.6362 22.8196 21.3727 22.9867 21.0434 23.1426C20.736 23.2986 20.3848 23.4211 19.9896 23.5102C19.6164 23.5993 19.2322 23.6439 18.837 23.6439C18.4638 23.6439 18.0905 23.5993 17.7173 23.5102C17.366 23.3988 17.0477 23.2317 16.7623 23.009C16.4988 22.7639 16.2793 22.4521 16.1036 22.0734C15.95 21.6947 15.8731 21.2268 15.8731 20.6699V4.53059L10.0113 19.2665L8.26588 23.6439C8.20001 23.6439 8.12317 23.6327 8.03536 23.6104C7.94754 23.5882 7.84874 23.5325 7.73897 23.4434C7.6292 23.332 7.50845 23.1649 7.37672 22.9421C7.24499 22.7194 7.10229 22.3964 6.94861 21.9731L0.658636 6.20133C0.658636 6.17905 0.647658 6.15677 0.625704 6.1345C0.581795 6.11222 0.548863 6.04539 0.526909 5.93401V18.7987C0.526909 19.3779 0.636681 19.8568 0.856226 20.2355C1.09773 20.592 1.3502 20.9038 1.61366 21.1712C1.89907 21.4162 2.1735 21.639 2.43695 21.8395C2.70041 22.0399 2.86507 22.2516 2.93093 22.4743C2.99679 22.6748 2.87604 22.8976 2.56868 23.1426C2.26132 23.3654 1.92102 23.5213 1.54779 23.6104C1.17457 23.6773 0.823295 23.6327 0.493977 23.4768C0.164659 23.2986 0 22.9199 0 22.3407V5.13205C0 4.55286 0.175636 4.07392 0.526909 3.69522C0.878181 3.29424 1.30629 3.09375 1.81125 3.09375C2.40402 3.09375 2.93093 3.30538 3.39197 3.72863C3.85302 4.12961 4.29211 4.86473 4.70925 5.93401L9.71488 18.5648L15.0498 5.16547C15.2474 4.65311 15.4999 4.1853 15.8073 3.76205C16.1366 3.31652 16.6306 3.09375 17.2892 3.09375C18.0356 3.09375 18.6284 3.37221 19.0675 3.92912C19.5066 4.46376 19.7261 5.1766 19.7261 6.06767V19.6007Z" fill="#FDFCFC"/>
<path d="M28.5959 11.8818C29.6277 11.8818 30.5827 12.2271 31.4609 12.9177C32.3391 13.586 33.0416 14.6107 33.5686 15.9919L26.4553 19.3333C26.7626 19.9571 27.1139 20.514 27.5091 21.0041C27.9043 21.4719 28.3104 21.8506 28.7276 22.1402C29.2106 22.5189 29.6497 22.7194 30.0448 22.7417C30.462 22.7417 30.8133 22.6525 31.0987 22.4743C31.406 22.2961 31.6475 22.0622 31.8232 21.7726C32.0208 21.4608 32.1525 21.1934 32.2183 20.9707C32.4818 20.9484 32.6574 20.9929 32.7453 21.1043C32.8331 21.1934 32.855 21.316 32.8111 21.4719C32.7892 21.6278 32.7233 21.7949 32.6135 21.9731C32.5257 22.129 32.4269 22.2516 32.3171 22.3407C31.922 22.6971 31.406 23.009 30.7694 23.2763C30.1546 23.5213 29.474 23.6439 28.7276 23.6439H28.5959C27.8055 23.6439 27.059 23.4991 26.3565 23.2095C25.6759 22.8976 25.0722 22.4743 24.5452 21.9397C24.0183 21.4051 23.6012 20.7925 23.2938 20.1019C23.0084 19.389 22.8657 18.6316 22.8657 17.8297V17.696C22.8657 16.8941 23.0084 16.1478 23.2938 15.4572C23.6012 14.7444 24.0183 14.1318 24.5452 13.6194C25.0722 13.0848 25.6759 12.6615 26.3565 12.3497C27.059 12.0378 27.8055 11.8818 28.5959 11.8818ZM28.2007 17.9299C28.8154 17.6403 29.2764 17.3285 29.5838 16.9943C29.8912 16.6602 30.0668 16.326 30.1107 15.9919C30.1546 15.6577 30.0888 15.3236 29.9131 14.9894C29.7594 14.633 29.5289 14.2877 29.2216 13.9536C28.7166 13.4412 28.2336 13.0848 27.7726 12.8843C27.3115 12.6838 26.8834 12.6838 26.4882 12.8843L26.3236 12.9511C26.0162 13.1071 25.7747 13.3744 25.5991 13.7531C25.4454 14.1318 25.3576 14.5884 25.3356 15.1231C25.3137 15.6354 25.3685 16.2035 25.5003 16.8272C25.6539 17.451 25.8735 18.0747 26.1589 18.6985L26.2248 18.8655L28.2007 17.9299Z" fill="#FDFCFC"/>
<path d="M78.7255 20.4694C78.7255 21.3382 78.8353 21.9843 79.0548 22.4075C79.2963 22.8085 79.6037 23.009 79.9769 23.009C79.5598 23.2986 79.1756 23.4768 78.8243 23.5436C78.473 23.6104 78.1656 23.6439 77.9022 23.6439C76.6947 23.6439 75.8494 23.254 75.3664 22.4743C75.0591 22.8085 74.7188 23.0869 74.3456 23.3097C73.9723 23.5325 73.5662 23.6439 73.1271 23.6439C72.2928 23.6439 71.5464 23.4879 70.8877 23.176C70.2291 22.8419 69.7022 22.3852 69.307 21.806C68.9777 22.3184 68.5825 22.7528 68.1215 23.1092C67.6604 23.4656 67.1445 23.6439 66.5737 23.6439C65.1686 23.6439 64.0379 23.2206 63.1817 22.3741C62.3474 21.5276 61.9303 20.3469 61.9303 18.8321V15.0897C61.9303 14.1986 61.8425 13.5526 61.6668 13.1516C61.5131 12.7506 61.2826 12.5501 60.9753 12.5501C61.2826 12.2383 61.568 12.0489 61.8315 11.9821C62.1169 11.9153 62.3584 11.8818 62.556 11.8818C63.3244 11.8818 63.9062 12.138 64.3014 12.6504C64.6965 13.1627 64.8941 13.987 64.8941 15.1231V20.4694C64.8941 21.316 65.0588 21.9731 65.3881 22.4409C65.7394 22.8865 66.1346 23.1092 66.5737 23.1092C66.9688 23.1092 67.375 22.8976 67.7921 22.4743C68.2312 22.0288 68.5605 21.4496 68.7801 20.7368C68.5825 20.1799 68.4837 19.545 68.4837 18.8321V15.0897C68.4837 14.1986 68.3959 13.5526 68.2202 13.1516C68.0666 12.7506 67.836 12.5501 67.5287 12.5501C67.836 12.2383 68.1215 12.0489 68.3849 11.9821C68.6703 11.9153 68.9118 11.8818 69.1094 11.8818C69.8778 11.8818 70.4596 12.138 70.8548 12.6504C71.25 13.1627 71.4476 13.987 71.4476 15.1231V20.4694C71.4476 21.316 71.6122 21.9731 71.9415 22.4409C72.2928 22.8865 72.688 23.1092 73.1271 23.1092C73.4345 23.1092 73.7638 22.9756 74.115 22.7082C74.4663 22.4186 74.7627 22.0288 75.0042 21.5387C74.9603 21.3605 74.9274 21.1823 74.9054 21.0041C74.8834 20.8259 74.8725 20.6254 74.8725 20.4026V15.0897C74.8725 14.1986 74.7627 13.5526 74.5432 13.1516C74.3236 12.7506 74.0272 12.5501 73.654 12.5501C74.0711 12.2383 74.4553 12.0489 74.8066 11.9821C75.1579 11.9153 75.4543 11.8818 75.6958 11.8818C76.6837 11.8818 77.4302 12.138 77.9351 12.6504C78.462 13.1627 78.7255 13.987 78.7255 15.1231V20.4694Z" fill="#FDFCFC"/>
<path d="M94.3223 3.76205C93.9491 3.76205 93.6417 3.96253 93.4002 4.36351C93.1807 4.76449 93.0709 5.41051 93.0709 6.30157V20.4694C93.0709 21.3382 93.1807 21.9843 93.4002 22.4075C93.6417 22.8085 93.9491 23.009 94.3223 23.009C93.9052 23.2986 93.521 23.4768 93.1697 23.5436C92.8184 23.6104 92.511 23.6439 92.2476 23.6439C91.1059 23.6439 90.2936 23.2986 89.8106 22.608C89.3496 22.9199 88.8446 23.176 88.2958 23.3765C87.7469 23.5547 87.1761 23.6439 86.5833 23.6439H86.4516C85.6612 23.6439 84.9148 23.4991 84.2122 23.2095C83.5316 22.8976 82.9279 22.4743 82.401 21.9397C81.8741 21.4051 81.4569 20.7925 81.1496 20.1019C80.8642 19.389 80.7215 18.6316 80.7215 17.8297V17.696C80.7215 16.8941 80.8642 16.1478 81.1496 15.4572C81.4569 14.7444 81.8741 14.1318 82.401 13.6194C82.9279 13.0848 83.5316 12.6615 84.2122 12.3497C84.9148 12.0378 85.6612 11.8818 86.4516 11.8818H86.5833C87.0663 11.8818 87.5274 11.9487 87.9665 12.0823C88.4055 12.1937 88.8227 12.3608 89.2179 12.5836V6.33499C89.2179 5.19888 89.4703 4.37465 89.9753 3.86229C90.5022 3.34993 91.2596 3.09375 92.2476 3.09375C92.511 3.09375 92.8184 3.12716 93.1697 3.19399C93.521 3.26082 93.9052 3.45017 94.3223 3.76205ZM84.5745 17.7628C84.5745 18.8767 84.7282 19.8012 85.0355 20.5363C85.3429 21.2491 85.7271 21.7838 86.1881 22.1402C86.6711 22.4743 87.1981 22.6191 87.7689 22.5746C88.3397 22.53 88.8995 22.3073 89.4484 21.9063C89.3825 21.7058 89.3276 21.483 89.2837 21.238C89.2398 20.9929 89.2179 20.7145 89.2179 20.4026V14.1875C89.2179 13.8088 89.0422 13.508 88.691 13.2853C88.3397 13.0625 87.9774 12.9511 87.6042 12.9511C86.7919 12.9511 86.0784 13.3521 85.4636 14.154C84.8709 14.9337 84.5745 16.1367 84.5745 17.7628Z" fill="#FDFCFC"/>
<path d="M104.003 11.8818C104.991 11.8818 105.738 12.138 106.243 12.6504C106.748 13.1627 107 13.987 107 15.1231V28.1883C107 29.7031 106.451 30.8837 105.353 31.7302C104.278 32.5767 102.818 33 100.973 33C100.271 33 99.6782 32.8775 99.1952 32.6324C98.7122 32.3874 98.306 32.0978 97.9767 31.7637C97.6035 31.3627 97.362 30.9506 97.2522 30.5273C97.1644 30.1263 97.1644 29.7588 97.2522 29.4246C97.362 29.0905 97.5266 28.812 97.7462 28.5892C97.9877 28.3665 98.2511 28.2551 98.5365 28.2551C98.5365 28.8343 98.6024 29.3801 98.7341 29.8924C98.8658 30.4271 99.0415 30.8837 99.261 31.2624C99.4806 31.6411 99.7331 31.9419 100.018 32.1646C100.326 32.3874 100.644 32.4988 100.973 32.4988C101.544 32.4988 102.049 32.2315 102.488 31.6968C102.949 31.1845 103.18 30.4271 103.18 29.4246V22.4743C102.829 22.8085 102.444 23.0869 102.027 23.3097C101.61 23.5325 101.171 23.6439 100.71 23.6439C99.1293 23.6439 97.8669 23.2206 96.9229 22.3741C96.0008 21.5276 95.5397 20.3469 95.5397 18.8321V15.0897C95.5397 14.1986 95.4409 13.5526 95.2434 13.1516C95.0677 12.7506 94.8152 12.5501 94.4859 12.5501C94.8591 12.2383 95.1885 12.0489 95.4739 11.9821C95.7593 11.9153 96.0227 11.8818 96.2642 11.8818C97.0985 11.8818 97.7352 12.138 98.1743 12.6504C98.6134 13.1627 98.8329 13.987 98.8329 15.1231V20.4694C98.8329 21.316 99.0195 21.9731 99.3928 22.4409C99.7879 22.8865 100.227 23.1092 100.71 23.1092C100.93 23.1092 101.182 23.0312 101.467 22.8753C101.753 22.7194 102.016 22.5078 102.258 22.2404C102.521 21.9508 102.741 21.5944 102.916 21.1712C103.092 20.7479 103.18 20.269 103.18 19.7343C103.18 18.2641 103.169 17.1391 103.147 16.3594C103.147 15.5575 103.147 15.1342 103.147 15.0897C103.147 14.1986 103.037 13.5526 102.818 13.1516C102.598 12.7506 102.302 12.5501 101.929 12.5501C102.346 12.2383 102.73 12.0489 103.081 11.9821C103.432 11.9153 103.74 11.8818 104.003 11.8818Z" fill="#FDFCFC"/>
<path d="M40.0093 17.221C40.0093 18.0821 40.1198 18.7224 40.3409 19.1418C40.5841 19.5393 40.8936 19.738 41.2694 19.738C40.8494 20.025 40.4625 20.2016 40.1088 20.2678C39.755 20.3341 39.4455 20.3672 39.1802 20.3672C38.1854 20.3672 37.4337 20.1133 36.9253 19.6055C36.4168 19.0977 36.1625 18.2808 36.1625 17.1548V3.17927C36.1625 2.29614 36.052 1.65587 35.8309 1.25846C35.5877 0.861051 35.2782 0.662347 34.9024 0.662347C35.3225 0.353251 35.7093 0.165586 36.0631 0.0993506C36.4168 0.0331167 36.7263 0 36.9916 0C37.9864 0 38.7381 0.253899 39.2466 0.761699C39.755 1.2695 40.0093 2.0864 40.0093 3.21239V17.221Z" fill="#FDFCFC"/>
<path d="M45.8708 17.221C45.8708 18.0821 45.9814 18.7224 46.2025 19.1418C46.4456 19.5393 46.7551 19.738 47.131 19.738C46.7109 20.025 46.324 20.2016 45.9703 20.2678C45.6166 20.3341 45.3071 20.3672 45.0418 20.3672C44.047 20.3672 43.2953 20.1133 42.7868 19.6055C42.2783 19.0977 42.0241 18.2808 42.0241 17.1548V3.17927C42.0241 2.29614 41.9136 1.65587 41.6925 1.25846C41.4493 0.861051 41.1398 0.662347 40.764 0.662347C41.184 0.353251 41.5709 0.165586 41.9246 0.0993506C42.2783 0.0331167 42.5878 0 42.8531 0C43.848 0 44.5996 0.253899 45.1081 0.761699C45.6166 1.2695 45.8708 2.0864 45.8708 3.21239V17.221Z" fill="#FDFCFC"/>
<path fill-rule="evenodd" clip-rule="evenodd" d="M50.5398 20.501C47.6266 17.9422 49.6945 10.9312 56.013 12.6402C59.1111 13.4782 60.3786 15.6298 60.3786 18.2595C60.3786 22.5709 57.6813 23.5353 55.1514 23.5353C53.0527 23.5353 48.7494 23.3273 45.0016 23.1462C42.1108 23.0065 39.5506 22.8828 38.5876 22.8828C40.3835 26.3531 43.1303 25.8369 46.3352 25.2346C46.9601 25.1172 47.6024 24.9965 48.2585 24.9014C47.8849 25.033 47.5305 25.1597 47.193 25.2804C42.6002 26.9222 41.1438 27.4428 37.3447 23.9692C36.9572 23.6684 36.6458 23.4055 36.3788 23.1801C35.2236 22.2049 34.9021 21.9335 32.8643 22.3379C37.7463 20.8771 43.3302 21.1958 46.9972 21.4051C50.1508 21.5851 51.8867 21.6841 50.5398 20.501ZM56.9209 21.3023C58.222 20.5404 58.315 18.2331 57.1286 16.1489C55.9422 14.0646 53.9257 12.9926 52.6247 13.7546C51.3236 14.5165 51.2307 16.8237 52.4171 18.908C53.6034 20.9922 55.6199 22.0642 56.9209 21.3023Z" fill="#45B5AA"/>
</svg>
