<svg width="25" height="24" viewBox="0 0 25 24" fill="none" xmlns="http://www.w3.org/2000/svg">
<path d="M3.71436 11.25H1.46436C1.05036 11.25 0.714355 11.586 0.714355 12C0.714355 12.414 1.05036 12.75 1.46436 12.75H3.71436C4.12836 12.75 4.46436 12.414 4.46436 12C4.46436 11.586 4.12836 11.25 3.71436 11.25ZM12.7144 3.75C13.1284 3.75 13.4644 3.414 13.4644 3V0.75C13.4644 0.336 13.1284 0 12.7144 0C12.3004 0 11.9644 0.336 11.9644 0.75V3C11.9644 3.414 12.3004 3.75 12.7144 3.75ZM19.9301 5.83498L21.5059 4.25922C21.7961 3.96898 21.7961 3.49871 21.5059 3.20847C21.2157 2.91824 20.7453 2.91824 20.4551 3.20847L18.8793 4.78424C18.5891 5.07447 18.5891 5.54475 18.8793 5.83498C19.1696 6.12526 19.6399 6.12526 19.9301 5.83498ZM6.27185 17.3925L4.69608 18.9683C4.40585 19.2585 4.40585 19.7288 4.69608 20.019C4.98632 20.3093 5.45659 20.3093 5.74683 20.019L7.32259 18.4433C7.61283 18.153 7.61283 17.6827 7.32259 17.3925C7.03236 17.1023 6.56212 17.1022 6.27185 17.3925ZM5.82036 6.16651C6.11361 6.45976 6.58836 6.45976 6.88083 6.16651C7.17334 5.87326 7.17334 5.39851 6.88083 5.10604L5.29012 3.51451C4.99687 3.22126 4.52212 3.22126 4.22961 3.51451C3.93636 3.80777 3.93636 4.28251 4.22961 4.57502L5.82036 6.16651ZM12.7144 20.25C12.3004 20.25 11.9644 20.586 11.9644 21V23.25C11.9644 23.664 12.3004 24 12.7144 24C13.1284 24 13.4644 23.664 13.4644 23.25V21C13.4644 20.586 13.1284 20.25 12.7144 20.25ZM19.6084 17.8335C19.3151 17.5402 18.8404 17.5402 18.5478 17.8335C18.2546 18.1268 18.2546 18.6015 18.5478 18.894L20.1386 20.4847C20.4318 20.778 20.9066 20.778 21.1991 20.4847C21.4916 20.1915 21.4924 19.7167 21.1991 19.4242L19.6084 17.8335ZM23.9644 11.25H21.7144C21.3004 11.25 20.9644 11.586 20.9644 12C20.9644 12.414 21.3004 12.75 21.7144 12.75H23.9644C24.3784 12.75 24.7144 12.414 24.7144 12C24.7144 11.586 24.3784 11.25 23.9644 11.25ZM12.7144 5.24549C8.98385 5.24549 5.95985 8.26949 5.95985 12C5.95985 15.7305 8.98385 18.7545 12.7144 18.7545C16.4449 18.7545 19.4689 15.7305 19.4689 12C19.4689 8.26949 16.4449 5.24549 12.7144 5.24549ZM12.7144 17.2485C9.81561 17.2485 7.46585 14.8987 7.46585 12C7.46585 9.10126 9.81561 6.75149 12.7144 6.75149C15.6131 6.75149 17.9629 9.10126 17.9629 12C17.9629 14.8987 15.6131 17.2485 12.7144 17.2485Z" fill="#FDFCFC"/>
</svg>
