<svg width="56" height="19" viewBox="0 0 56 19" fill="none" xmlns="http://www.w3.org/2000/svg">
<path d="M16.036 17.228C15.8307 17.5453 15.5693 17.7787 15.252 17.928C14.9533 18.0773 14.6173 18.1613 14.244 18.18C13.8893 18.1987 13.5253 18.1613 13.152 18.068C12.7787 17.9747 12.424 17.8253 12.088 17.62C11.752 17.4147 11.444 17.1627 11.164 16.864C10.884 16.5653 10.66 16.22 10.492 15.828L8.448 10.76C8 10.7787 7.50533 10.8813 6.964 11.068C6.03067 11.3667 5.18133 11.852 4.416 12.524C3.65067 13.1773 2.99733 13.98 2.456 14.932C2.288 15.212 2.24133 15.4827 2.316 15.744C2.40933 16.0053 2.54 16.2573 2.708 16.5C2.876 16.7427 3.03467 16.9667 3.184 17.172C3.352 17.3773 3.42667 17.564 3.408 17.732C3.38933 17.8813 3.25867 18.0027 3.016 18.096C2.77333 18.1893 2.50267 18.2267 2.204 18.208C1.868 18.2267 1.56 18.1613 1.28 18.012C1.01867 17.844 0.934667 17.5267 1.028 17.06L1.14 16.696C1.15867 16.64 1.26133 16.3693 1.448 15.884C1.65333 15.3987 1.90533 14.7827 2.204 14.036C2.50267 13.2893 2.83867 12.4493 3.212 11.516C3.604 10.5827 3.996 9.63067 4.388 8.66C5.30267 6.40133 6.32933 3.844 7.468 0.987999H8.056L13.964 15.604C14.1133 15.996 14.272 16.304 14.44 16.528C14.6267 16.752 14.804 16.92 14.972 17.032C15.14 17.144 15.2987 17.2187 15.448 17.256C15.5973 17.2747 15.7187 17.284 15.812 17.284C15.8493 17.284 15.8773 17.284 15.896 17.284C15.9147 17.2653 15.9333 17.256 15.952 17.256C15.9707 17.256 15.9893 17.2467 16.008 17.228V17.256L16.036 17.228ZM6.824 10.648C7.328 10.4613 7.81333 10.3587 8.28 10.34L6.236 5.272L2.96 13.392C3.50133 12.7387 4.08933 12.1787 4.724 11.712C5.37733 11.2453 6.07733 10.8907 6.824 10.648ZM24.7263 8.996C24.9503 9.12667 25.1089 9.32267 25.2023 9.584C25.2956 9.84533 25.3236 10.116 25.2863 10.396C25.2676 10.676 25.1743 10.9467 25.0063 11.208C24.8569 11.4693 24.6423 11.6653 24.3623 11.796L24.0823 11.32C23.8023 10.8907 23.5036 10.5267 23.1863 10.228C22.8876 9.92933 22.5796 9.696 22.2623 9.528C21.9636 9.36 21.6743 9.26667 21.3943 9.248C21.1143 9.22933 20.8716 9.28533 20.6663 9.416L20.5543 9.472C20.2743 9.696 20.1063 10.06 20.0503 10.564V15.548C20.0503 16.276 20.1436 16.8173 20.3303 17.172C20.5356 17.508 20.7969 17.676 21.1143 17.676C20.7596 17.9187 20.4329 18.068 20.1343 18.124C19.8356 18.18 19.5743 18.208 19.3503 18.208C18.5103 18.208 17.8756 17.9933 17.4463 17.564C17.0169 17.1347 16.8023 16.444 16.8023 15.492V11.04C16.8023 10.2933 16.6996 9.752 16.4943 9.416C16.3076 9.08 16.0556 8.912 15.7383 8.912C16.0929 8.65067 16.4196 8.492 16.7183 8.436C17.0169 8.38 17.2783 8.352 17.5023 8.352C18.6409 8.352 19.4063 8.76267 19.7983 9.584C20.4329 8.912 21.2076 8.52 22.1223 8.408H22.2343C22.6823 8.352 23.1116 8.38 23.5223 8.492C23.9516 8.604 24.3529 8.772 24.7263 8.996ZM33.685 17.452C33.8343 17.3587 33.9743 17.312 34.105 17.312C34.2543 17.312 34.3476 17.3493 34.385 17.424C34.441 17.48 34.4316 17.564 34.357 17.676C34.301 17.788 34.133 17.9 33.853 18.012C33.405 18.2173 32.9476 18.32 32.481 18.32C30.913 18.32 29.6623 17.9653 28.729 17.256C27.8143 16.5467 27.357 15.5573 27.357 14.288V3.676C27.357 2.92933 27.2543 2.388 27.049 2.052C26.8623 1.716 26.6103 1.548 26.293 1.548C26.6476 1.28667 26.9743 1.128 27.273 1.072C27.5716 1.016 27.833 0.987999 28.057 0.987999C28.897 0.987999 29.5316 1.20267 29.961 1.632C30.3903 2.06133 30.605 2.752 30.605 3.704V8.352H32.229C32.733 8.352 33.0783 8.48267 33.265 8.744C33.4703 9.00533 33.573 9.29467 33.573 9.612C33.5916 9.91067 33.5356 10.1907 33.405 10.452C33.2743 10.7133 33.1156 10.844 32.929 10.844C32.929 10.676 32.8636 10.48 32.733 10.256C32.621 10.0133 32.4623 9.78933 32.257 9.584C32.0516 9.36 31.809 9.17333 31.529 9.024C31.249 8.87467 30.941 8.8 30.605 8.8V15.66C30.605 16.3693 30.7916 16.92 31.165 17.312C31.557 17.6853 31.9956 17.872 32.481 17.872C32.8916 17.872 33.293 17.732 33.685 17.452ZM39.6831 17.676C39.3284 17.9187 39.0018 18.068 38.7031 18.124C38.4044 18.18 38.1431 18.208 37.9191 18.208C37.0791 18.208 36.4444 17.9933 36.0151 17.564C35.5858 17.1347 35.3711 16.444 35.3711 15.492V11.04C35.3711 10.2933 35.2778 9.752 35.0911 9.416C34.8858 9.08 34.6244 8.912 34.3071 8.912C34.6618 8.65067 34.9884 8.492 35.2871 8.436C35.5858 8.38 35.8471 8.352 36.0711 8.352C36.9111 8.352 37.5458 8.56667 37.9751 8.996C38.4044 9.42533 38.6191 10.116 38.6191 11.068V15.548C38.6191 16.276 38.7124 16.8173 38.8991 17.172C39.1044 17.508 39.3658 17.676 39.6831 17.676ZM36.6871 7.204C36.2578 7.204 35.8844 7.05467 35.5671 6.756C35.2498 6.43867 35.0911 6.06533 35.0911 5.636C35.0911 5.188 35.2498 4.81467 35.5671 4.516C35.8844 4.19867 36.2578 4.04 36.6871 4.04C37.1164 4.04 37.4804 4.19867 37.7791 4.516C38.0964 4.81467 38.2551 5.188 38.2551 5.636C38.2551 6.06533 38.0964 6.43867 37.7791 6.756C37.4804 7.05467 37.1164 7.204 36.6871 7.204ZM55.0763 17.452C55.2256 17.3587 55.3656 17.312 55.4963 17.312C55.6456 17.312 55.7483 17.3493 55.8043 17.424C55.8603 17.48 55.851 17.564 55.7763 17.676C55.7203 17.788 55.5523 17.9093 55.2723 18.04C54.8056 18.2267 54.3483 18.32 53.9003 18.32C52.3323 18.32 51.0816 17.9653 50.1483 17.256C49.215 16.5467 48.7483 15.5573 48.7483 14.288V3.676C48.7483 2.18267 48.403 1.436 47.7123 1.436H46.8163C46.3496 1.436 45.9483 1.604 45.6123 1.94C45.295 2.25733 45.0523 2.668 44.8843 3.172C44.7163 3.65733 44.6136 4.19867 44.5763 4.796C44.539 5.39333 44.567 5.972 44.6603 6.532C44.7536 7.07333 44.9123 7.55867 45.1363 7.988C45.3603 8.39867 45.6403 8.67867 45.9763 8.828C46.387 9.01467 46.7416 9.248 47.0403 9.528C47.1523 9.64 47.2456 9.78933 47.3203 9.976C47.4136 10.144 47.451 10.3213 47.4323 10.508C47.4323 10.676 47.3576 10.8347 47.2083 10.984C47.059 11.1147 46.7883 11.208 46.3963 11.264C46.415 10.8907 46.3216 10.5173 46.1163 10.144C45.911 9.77067 45.6123 9.48133 45.2203 9.276C45.183 9.23867 45.1456 9.22 45.1083 9.22C45.015 9.18267 44.9123 9.14533 44.8003 9.108C44.6883 9.07067 44.567 9.052 44.4363 9.052C43.9883 9.01467 43.6056 9.08 43.2883 9.248C42.971 9.416 42.7936 9.65867 42.7563 9.976C42.7376 10.2373 42.8403 10.508 43.0643 10.788C43.307 11.068 43.6056 11.3573 43.9603 11.656C44.315 11.936 44.6976 12.2347 45.1083 12.552C45.519 12.8693 45.9016 13.1867 46.2563 13.504C46.6483 13.8773 46.975 14.2507 47.2363 14.624C47.4976 14.9787 47.6096 15.3707 47.5723 15.8C47.535 16.2107 47.3856 16.5747 47.1243 16.892C46.8816 17.1907 46.5736 17.452 46.2003 17.676C45.827 17.8813 45.4163 18.0307 44.9683 18.124C44.5203 18.1987 44.091 18.2173 43.6803 18.18C42.3736 18.068 41.3936 17.6853 40.7403 17.032C40.6283 16.92 40.5256 16.78 40.4323 16.612C40.339 16.444 40.3016 16.276 40.3203 16.108C40.339 15.9213 40.423 15.7627 40.5723 15.632C40.7216 15.4827 40.9923 15.38 41.3843 15.324C41.3843 15.5667 41.4216 15.8187 41.4963 16.08C41.5896 16.3227 41.7203 16.5467 41.8883 16.752C42.0563 16.9573 42.2616 17.1347 42.5043 17.284C42.747 17.4333 43.027 17.5173 43.3443 17.536C43.7923 17.5733 44.1376 17.508 44.3803 17.34C44.623 17.1533 44.763 16.9013 44.8003 16.584C44.819 16.3227 44.7256 16.0613 44.5203 15.8C44.315 15.52 44.0443 15.2307 43.7083 14.932C43.391 14.6333 43.027 14.3347 42.6163 14.036C42.2243 13.7187 41.8603 13.4013 41.5243 13.084C40.703 12.356 40.3203 11.5907 40.3763 10.788C40.4136 10.396 40.5443 10.0507 40.7683 9.752C40.9923 9.43467 41.2723 9.17333 41.6083 8.968C41.9443 8.76267 42.3083 8.61333 42.7003 8.52C43.111 8.408 43.5216 8.36133 43.9323 8.38C43.2976 7.74533 42.8963 7.008 42.7283 6.168C42.579 5.328 42.635 4.52533 42.8963 3.76C43.1763 2.99467 43.643 2.35067 44.2963 1.828C44.9683 1.28667 45.8083 1.016 46.8163 1.016H48.9723C49.0656 0.997333 49.1496 0.997333 49.2243 1.016C49.299 1.016 49.3736 1.016 49.4483 1.016C50.2883 1.016 50.923 1.23067 51.3523 1.66C51.8003 2.07067 52.0243 2.752 52.0243 3.704V8.38H53.6483C54.1523 8.38 54.4976 8.51067 54.6843 8.772C54.8896 9.03333 54.9923 9.32267 54.9923 9.64C55.011 9.93867 54.955 10.2187 54.8243 10.48C54.6936 10.7227 54.535 10.844 54.3483 10.844C54.3483 10.676 54.283 10.48 54.1523 10.256C54.0403 10.0133 53.8723 9.78933 53.6483 9.584C53.443 9.36 53.2003 9.17333 52.9203 9.024C52.6403 8.87467 52.3416 8.8 52.0243 8.8V15.66C52.0243 16.3693 52.211 16.92 52.5843 17.312C52.9763 17.6853 53.415 17.872 53.9003 17.872C54.2923 17.872 54.6843 17.732 55.0763 17.452Z" fill="#FDFCFC"/>
</svg>
