<svg width="170" height="20" viewBox="0 0 170 20" fill="none" xmlns="http://www.w3.org/2000/svg">
<path d="M5.73 15.45C5.73 16.15 5.84 16.66 6.06 16.98C6.3 17.3 6.56 17.51 6.84 17.61C7.16 17.73 7.53 17.75 7.95 17.67C7.93 17.85 7.83 18.02 7.65 18.18C7.47 18.34 7.23 18.49 6.93 18.63C6.65 18.77 6.33 18.88 5.97 18.96C5.63 19.04 5.28 19.08 4.92 19.08C4.58 19.08 4.24 19.04 3.9 18.96C3.58 18.86 3.29 18.71 3.03 18.51C2.79 18.29 2.59 18.01 2.43 17.67C2.29 17.33 2.22 16.91 2.22 16.41V4.26C2.22 3.56 2.1 3.05 1.86 2.73C1.64 2.41 1.39 2.2 1.11 2.1C0.77 1.98 0.4 1.96 0 2.04C0.02 1.86 0.12 1.69 0.3 1.53C0.48 1.37 0.71 1.22 0.99 1.08C1.27 0.94 1.59 0.83 1.95 0.75C2.31 0.669999 2.67 0.629999 3.03 0.629999C3.37 0.629999 3.7 0.679999 4.02 0.779999C4.36 0.859999 4.65 1.01 4.89 1.23C5.15 1.43 5.35 1.7 5.49 2.04C5.65 2.38 5.73 2.8 5.73 3.3V15.45ZM20.1361 16.23C20.1361 17.01 20.2261 17.59 20.4061 17.97C20.5861 18.33 20.8261 18.51 21.1261 18.51C20.7861 18.77 20.4761 18.93 20.1961 18.99C19.9361 19.05 19.6961 19.08 19.4761 19.08C18.7161 19.08 18.1261 18.85 17.7061 18.39C17.2861 17.93 17.0761 17.19 17.0761 16.17V11.37C17.0761 10.61 16.8961 10.03 16.5361 9.63C16.1961 9.21 15.7961 9 15.3361 9C15.1361 9 14.9061 9.07 14.6461 9.21C14.4061 9.33 14.1661 9.51 13.9261 9.75C13.7061 9.99 13.5161 10.28 13.3561 10.62C13.1961 10.94 13.1161 11.29 13.1161 11.67V16.23C13.1161 17.01 13.2161 17.59 13.4161 17.97C13.6361 18.33 13.9161 18.51 14.2561 18.51C13.8761 18.77 13.5261 18.93 13.2061 18.99C12.8861 19.05 12.6061 19.08 12.3661 19.08C11.4661 19.08 10.7861 18.85 10.3261 18.39C9.86609 17.93 9.63609 17.19 9.63609 16.17V11.4C9.63609 10.6 9.52609 10.02 9.30609 9.66C9.10609 9.3 8.83609 9.12 8.49609 9.12C8.87609 8.84 9.22609 8.67 9.54609 8.61C9.86609 8.55 10.1461 8.52 10.3861 8.52C11.5861 8.52 12.3961 8.95 12.8161 9.81C13.1561 9.45 13.5361 9.15 13.9561 8.91C14.3761 8.65 14.8361 8.52 15.3361 8.52C16.7961 8.52 17.9561 8.9 18.8161 9.66C19.6961 10.42 20.1361 11.48 20.1361 12.84V16.23ZM37.7241 18.27C37.8841 18.17 38.0341 18.12 38.1741 18.12C38.3341 18.12 38.4441 18.16 38.5041 18.24C38.5641 18.3 38.5541 18.39 38.4741 18.51C38.4141 18.63 38.2341 18.76 37.9341 18.9C37.4341 19.1 36.9441 19.2 36.4641 19.2C34.7841 19.2 33.4441 18.82 32.4441 18.06C31.4441 17.3 30.9441 16.24 30.9441 14.88V3.51C30.9441 1.91 30.5741 1.11 29.8341 1.11H28.8741C28.3741 1.11 27.9441 1.29 27.5841 1.65C27.2441 1.99 26.9841 2.43 26.8041 2.97C26.6241 3.49 26.5141 4.07 26.4741 4.71C26.4341 5.35 26.4641 5.97 26.5641 6.57C26.6641 7.15 26.8341 7.67 27.0741 8.13C27.3141 8.57 27.6141 8.87 27.9741 9.03C28.4141 9.23 28.7941 9.48 29.1141 9.78C29.2341 9.9 29.3341 10.06 29.4141 10.26C29.5141 10.44 29.5541 10.63 29.5341 10.83C29.5341 11.01 29.4541 11.18 29.2941 11.34C29.1341 11.48 28.8441 11.58 28.4241 11.64C28.4441 11.24 28.3441 10.84 28.1241 10.44C27.9041 10.04 27.5841 9.73 27.1641 9.51C27.1241 9.47 27.0841 9.45 27.0441 9.45C26.9441 9.41 26.8341 9.37 26.7141 9.33C26.5941 9.29 26.4641 9.27 26.3241 9.27C25.8441 9.23 25.4341 9.3 25.0941 9.48C24.7541 9.66 24.5641 9.92 24.5241 10.26C24.5041 10.54 24.6141 10.83 24.8541 11.13C25.1141 11.43 25.4341 11.74 25.8141 12.06C26.1941 12.36 26.6041 12.68 27.0441 13.02C27.4841 13.36 27.8941 13.7 28.2741 14.04C28.6941 14.44 29.0441 14.84 29.3241 15.24C29.6041 15.62 29.7241 16.04 29.6841 16.5C29.6441 16.94 29.4841 17.33 29.2041 17.67C28.9441 17.99 28.6141 18.27 28.2141 18.51C27.8141 18.73 27.3741 18.89 26.8941 18.99C26.4141 19.07 25.9541 19.09 25.5141 19.05C24.1141 18.93 23.0641 18.52 22.3641 17.82C22.2441 17.7 22.1341 17.55 22.0341 17.37C21.9341 17.19 21.8941 17.01 21.9141 16.83C21.9341 16.63 22.0241 16.46 22.1841 16.32C22.3441 16.16 22.6341 16.05 23.0541 15.99C23.0541 16.25 23.0941 16.52 23.1741 16.8C23.2741 17.06 23.4141 17.3 23.5941 17.52C23.7741 17.74 23.9941 17.93 24.2541 18.09C24.5141 18.25 24.8141 18.34 25.1541 18.36C25.6341 18.4 26.0041 18.33 26.2641 18.15C26.5241 17.95 26.6741 17.68 26.7141 17.34C26.7341 17.06 26.6341 16.78 26.4141 16.5C26.1941 16.2 25.9041 15.89 25.5441 15.57C25.2041 15.25 24.8141 14.93 24.3741 14.61C23.9541 14.27 23.5641 13.93 23.2041 13.59C22.3241 12.81 21.9141 11.99 21.9741 11.13C22.0141 10.71 22.1541 10.34 22.3941 10.02C22.6341 9.68 22.9341 9.4 23.2941 9.18C23.6541 8.96 24.0441 8.8 24.4641 8.7C24.9041 8.58 25.3441 8.53 25.7841 8.55C25.1041 7.87 24.6741 7.08 24.4941 6.18C24.3341 5.28 24.3941 4.42 24.6741 3.6C24.9741 2.78 25.4741 2.09 26.1741 1.53C26.8941 0.949999 27.7941 0.659999 28.8741 0.659999H31.1841C31.2841 0.639999 31.3741 0.639999 31.4541 0.659999C31.5341 0.659999 31.6141 0.659999 31.6941 0.659999C32.5941 0.659999 33.2741 0.889999 33.7341 1.35C34.2141 1.79 34.4541 2.52 34.4541 3.54V8.55H36.1941C36.7341 8.55 37.1041 8.69 37.3041 8.97C37.5241 9.25 37.6341 9.56 37.6341 9.9C37.6541 10.22 37.5941 10.52 37.4541 10.8C37.3141 11.06 37.1441 11.19 36.9441 11.19C36.9441 11.01 36.8741 10.8 36.7341 10.56C36.6141 10.3 36.4341 10.06 36.1941 9.84C35.9741 9.6 35.7141 9.4 35.4141 9.24C35.1141 9.08 34.7941 9 34.4541 9V16.35C34.4541 17.11 34.6541 17.7 35.0541 18.12C35.4741 18.52 35.9441 18.72 36.4641 18.72C36.8841 18.72 37.3041 18.57 37.7241 18.27ZM49.1808 9.21C49.4208 9.35 49.5908 9.56 49.6908 9.84C49.7908 10.12 49.8208 10.41 49.7808 10.71C49.7608 11.01 49.6608 11.3 49.4808 11.58C49.3208 11.86 49.0908 12.07 48.7908 12.21L48.4908 11.7C48.1908 11.24 47.8708 10.85 47.5308 10.53C47.2108 10.21 46.8808 9.96 46.5408 9.78C46.2208 9.6 45.9108 9.5 45.6108 9.48C45.3108 9.46 45.0508 9.52 44.8308 9.66L44.7108 9.72C44.4108 9.96 44.2308 10.35 44.1708 10.89V16.23C44.1708 17.01 44.2708 17.59 44.4708 17.97C44.6908 18.33 44.9708 18.51 45.3108 18.51C44.9308 18.77 44.5808 18.93 44.2608 18.99C43.9408 19.05 43.6608 19.08 43.4208 19.08C42.5208 19.08 41.8408 18.85 41.3808 18.39C40.9208 17.93 40.6908 17.19 40.6908 16.17V11.4C40.6908 10.6 40.5808 10.02 40.3608 9.66C40.1608 9.3 39.8908 9.12 39.5508 9.12C39.9308 8.84 40.2808 8.67 40.6008 8.61C40.9208 8.55 41.2008 8.52 41.4408 8.52C42.6608 8.52 43.4808 8.96 43.9008 9.84C44.5808 9.12 45.4108 8.7 46.3908 8.58H46.5108C46.9908 8.52 47.4508 8.55 47.8908 8.67C48.3508 8.79 48.7808 8.97 49.1808 9.21ZM61.9371 16.23C61.9371 17.01 62.0371 17.59 62.2371 17.97C62.4571 18.33 62.7371 18.51 63.0771 18.51C62.6971 18.77 62.3471 18.93 62.0271 18.99C61.7071 19.05 61.4271 19.08 61.1871 19.08C59.9271 19.08 59.1071 18.63 58.7271 17.73C58.3871 18.11 58.0071 18.43 57.5871 18.69C57.1671 18.95 56.7071 19.08 56.2071 19.08C54.7671 19.08 53.6171 18.7 52.7571 17.94C51.9171 17.18 51.4971 16.12 51.4971 14.76V11.4C51.4971 10.6 51.4071 10.02 51.2271 9.66C51.0671 9.3 50.8371 9.12 50.5371 9.12C50.8771 8.84 51.1771 8.67 51.4371 8.61C51.6971 8.55 51.9371 8.52 52.1571 8.52C52.9171 8.52 53.4971 8.75 53.8971 9.21C54.2971 9.67 54.4971 10.41 54.4971 11.43V16.23C54.4971 16.99 54.6671 17.58 55.0071 18C55.3671 18.4 55.7671 18.6 56.2071 18.6C56.4071 18.6 56.6371 18.53 56.8971 18.39C57.1571 18.23 57.3971 18.02 57.6171 17.76C57.8371 17.5 58.0271 17.2 58.1871 16.86C58.3471 16.52 58.4271 16.16 58.4271 15.78V11.4C58.4271 10.6 58.3271 10.02 58.1271 9.66C57.9271 9.3 57.6571 9.12 57.3171 9.12C57.6971 8.84 58.0471 8.67 58.3671 8.61C58.6871 8.55 58.9571 8.52 59.1771 8.52C60.0771 8.52 60.7571 8.75 61.2171 9.21C61.6971 9.67 61.9371 10.41 61.9371 11.43V16.23ZM79.3111 16.23C79.3111 17.75 79.6011 18.51 80.1811 18.51C79.8811 18.77 79.6111 18.93 79.3711 18.99C79.1311 19.05 78.9111 19.08 78.7111 19.08C78.0311 19.08 77.5111 18.85 77.1511 18.39C76.7911 17.93 76.6111 17.19 76.6111 16.17V11.37C76.6111 10.61 76.4511 10.03 76.1311 9.63C75.8111 9.21 75.4511 9 75.0511 9C74.5711 9 74.1611 9.35 73.8211 10.05C73.5011 10.75 73.3411 11.68 73.3411 12.84V16.23C73.3411 17.75 73.6311 18.51 74.2111 18.51C73.9311 18.77 73.6611 18.93 73.4011 18.99C73.1611 19.05 72.9511 19.08 72.7711 19.08C72.0711 19.08 71.5411 18.85 71.1811 18.39C70.8211 17.93 70.6411 17.19 70.6411 16.17V11.37C70.6411 10.61 70.4811 10.03 70.1611 9.63C69.8611 9.21 69.5111 9 69.1111 9C68.9711 9 68.8011 9.05 68.6011 9.15C68.4211 9.23 68.2511 9.37 68.0911 9.57C67.9311 9.77 67.7911 10.03 67.6711 10.35C67.5511 10.65 67.4911 11.01 67.4911 11.43V16.23C67.4911 17.01 67.5911 17.59 67.7911 17.97C68.0111 18.33 68.2911 18.51 68.6311 18.51C68.2511 18.77 67.9011 18.93 67.5811 18.99C67.2611 19.05 66.9811 19.08 66.7411 19.08C65.8411 19.08 65.1611 18.85 64.7011 18.39C64.2411 17.93 64.0111 17.19 64.0111 16.17V11.4C64.0111 10.6 63.9011 10.02 63.6811 9.66C63.4811 9.3 63.2111 9.12 62.8711 9.12C63.2511 8.84 63.6011 8.67 63.9211 8.61C64.2411 8.55 64.5211 8.52 64.7611 8.52C65.8411 8.52 66.6111 8.88 67.0711 9.6C67.3511 9.28 67.6611 9.02 68.0011 8.82C68.3411 8.62 68.7111 8.52 69.1111 8.52C69.8711 8.52 70.5511 8.67 71.1511 8.97C71.7511 9.25 72.2311 9.65 72.5911 10.17C72.8911 9.71 73.2511 9.32 73.6711 9C74.0911 8.68 74.5511 8.52 75.0511 8.52C76.3511 8.52 77.3811 8.9 78.1411 9.66C78.9211 10.42 79.3111 11.48 79.3111 12.84V16.23ZM85.6106 8.52C86.5506 8.52 87.4206 8.83 88.2206 9.45C89.0206 10.05 89.6606 10.97 90.1406 12.21L83.6606 15.21C83.9406 15.77 84.2606 16.27 84.6206 16.71C84.9806 17.13 85.3506 17.47 85.7306 17.73C86.1706 18.07 86.5706 18.25 86.9306 18.27C87.3106 18.27 87.6306 18.19 87.8906 18.03C88.1706 17.87 88.3906 17.66 88.5506 17.4C88.7306 17.12 88.8506 16.88 88.9106 16.68C89.1506 16.66 89.3106 16.7 89.3906 16.8C89.4706 16.88 89.4906 16.99 89.4506 17.13C89.4306 17.27 89.3706 17.42 89.2706 17.58C89.1906 17.72 89.1006 17.83 89.0006 17.91C88.6406 18.23 88.1706 18.51 87.5906 18.75C87.0306 18.97 86.4106 19.08 85.7306 19.08H85.6106C84.8906 19.08 84.2106 18.95 83.5706 18.69C82.9506 18.41 82.4006 18.03 81.9206 17.55C81.4406 17.07 81.0606 16.52 80.7806 15.9C80.5206 15.26 80.3906 14.58 80.3906 13.86V13.74C80.3906 13.02 80.5206 12.35 80.7806 11.73C81.0606 11.09 81.4406 10.54 81.9206 10.08C82.4006 9.6 82.9506 9.22 83.5706 8.94C84.2106 8.66 84.8906 8.52 85.6106 8.52ZM85.2506 13.95C85.8106 13.69 86.2306 13.41 86.5106 13.11C86.7906 12.81 86.9506 12.51 86.9906 12.21C87.0306 11.91 86.9706 11.61 86.8106 11.31C86.6706 10.99 86.4606 10.68 86.1806 10.38C85.7206 9.92 85.2806 9.6 84.8606 9.42C84.4406 9.24 84.0506 9.24 83.6906 9.42L83.5406 9.48C83.2606 9.62 83.0406 9.86 82.8806 10.2C82.7406 10.54 82.6606 10.95 82.6406 11.43C82.6206 11.89 82.6706 12.4 82.7906 12.96C82.9306 13.52 83.1306 14.08 83.3906 14.64L83.4506 14.79L85.2506 13.95ZM102.285 16.23C102.285 17.01 102.375 17.59 102.555 17.97C102.735 18.33 102.975 18.51 103.275 18.51C102.935 18.77 102.625 18.93 102.345 18.99C102.085 19.05 101.845 19.08 101.625 19.08C100.865 19.08 100.275 18.85 99.8545 18.39C99.4345 17.93 99.2245 17.19 99.2245 16.17V11.37C99.2245 10.61 99.0445 10.03 98.6845 9.63C98.3445 9.21 97.9445 9 97.4845 9C97.2845 9 97.0545 9.07 96.7945 9.21C96.5545 9.33 96.3145 9.51 96.0745 9.75C95.8545 9.99 95.6645 10.28 95.5045 10.62C95.3445 10.94 95.2645 11.29 95.2645 11.67V16.23C95.2645 17.01 95.3645 17.59 95.5645 17.97C95.7845 18.33 96.0645 18.51 96.4045 18.51C96.0245 18.77 95.6745 18.93 95.3545 18.99C95.0345 19.05 94.7545 19.08 94.5145 19.08C93.6145 19.08 92.9345 18.85 92.4745 18.39C92.0145 17.93 91.7845 17.19 91.7845 16.17V11.4C91.7845 10.6 91.6745 10.02 91.4545 9.66C91.2545 9.3 90.9845 9.12 90.6445 9.12C91.0245 8.84 91.3745 8.67 91.6945 8.61C92.0145 8.55 92.2945 8.52 92.5345 8.52C93.7345 8.52 94.5445 8.95 94.9645 9.81C95.3045 9.45 95.6845 9.15 96.1045 8.91C96.5245 8.65 96.9845 8.52 97.4845 8.52C98.9445 8.52 100.105 8.9 100.965 9.66C101.845 10.42 102.285 11.48 102.285 12.84V16.23ZM111.104 18.27C111.264 18.17 111.414 18.12 111.554 18.12C111.714 18.12 111.814 18.16 111.854 18.24C111.914 18.3 111.904 18.39 111.824 18.51C111.764 18.63 111.584 18.75 111.284 18.87C110.804 19.09 110.314 19.2 109.814 19.2C108.134 19.2 106.794 18.82 105.794 18.06C104.814 17.3 104.324 16.24 104.324 14.88V3.51C104.324 2.71 104.214 2.13 103.994 1.77C103.794 1.41 103.524 1.23 103.184 1.23C103.564 0.949999 103.914 0.779999 104.234 0.719998C104.554 0.659999 104.834 0.629999 105.074 0.629999C105.974 0.629999 106.654 0.859999 107.114 1.32C107.574 1.78 107.804 2.52 107.804 3.54V8.52H109.544C110.084 8.52 110.454 8.66 110.654 8.94C110.874 9.22 110.984 9.53 110.984 9.87C111.004 10.19 110.944 10.49 110.804 10.77C110.664 11.05 110.494 11.19 110.294 11.19C110.294 11.01 110.224 10.8 110.084 10.56C109.964 10.3 109.794 10.06 109.574 9.84C109.354 9.6 109.094 9.4 108.794 9.24C108.494 9.08 108.164 9 107.804 9V16.35C107.804 17.11 108.004 17.7 108.404 18.12C108.824 18.52 109.294 18.72 109.814 18.72C110.254 18.72 110.684 18.57 111.104 18.27ZM122.424 16.23C122.424 17.01 122.524 17.59 122.724 17.97C122.944 18.33 123.224 18.51 123.564 18.51C123.184 18.77 122.834 18.93 122.514 18.99C122.194 19.05 121.914 19.08 121.674 19.08C120.474 19.08 119.674 18.67 119.274 17.85C118.754 18.27 118.184 18.58 117.564 18.78C116.964 18.98 116.444 19.08 116.004 19.08C115.564 19.08 115.144 19.03 114.744 18.93C114.364 18.81 114.024 18.65 113.724 18.45C113.424 18.23 113.184 17.96 113.004 17.64C112.824 17.3 112.734 16.9 112.734 16.44C112.734 15.78 112.974 15.21 113.454 14.73C113.934 14.23 114.504 13.81 115.164 13.47C115.844 13.11 116.534 12.84 117.234 12.66C117.934 12.46 118.504 12.33 118.944 12.27V11.37C118.944 10.61 118.734 10.03 118.314 9.63C117.914 9.21 117.454 9 116.934 9C116.594 9 116.264 9.09 115.944 9.27C115.644 9.45 115.374 9.69 115.134 9.99C114.894 10.29 114.704 10.65 114.564 11.07C114.424 11.49 114.354 11.94 114.354 12.42C113.994 12.42 113.724 12.34 113.544 12.18C113.384 12 113.294 11.79 113.274 11.55C113.254 11.29 113.294 11.02 113.394 10.74C113.514 10.46 113.674 10.21 113.874 9.99C114.334 9.51 114.804 9.15 115.284 8.91C115.764 8.65 116.314 8.52 116.934 8.52C118.614 8.52 119.944 8.9 120.924 9.66C121.924 10.42 122.424 11.48 122.424 12.84V16.23ZM119.094 17.4C119.034 17.22 118.994 17.03 118.974 16.83C118.954 16.63 118.944 16.41 118.944 16.17V12.78C118.384 12.92 117.884 13.12 117.444 13.38C117.024 13.62 116.664 13.91 116.364 14.25C116.064 14.57 115.844 14.92 115.704 15.3C115.584 15.66 115.544 16.03 115.584 16.41C115.644 16.87 115.804 17.22 116.064 17.46C116.344 17.7 116.654 17.86 116.994 17.94C117.354 18 117.724 17.98 118.104 17.88C118.484 17.78 118.814 17.62 119.094 17.4ZM127.64 16.23C127.64 17.01 127.74 17.59 127.94 17.97C128.16 18.33 128.44 18.51 128.78 18.51C128.4 18.77 128.05 18.93 127.73 18.99C127.41 19.05 127.13 19.08 126.89 19.08C125.99 19.08 125.31 18.85 124.85 18.39C124.39 17.93 124.16 17.19 124.16 16.17V3.51C124.16 2.71 124.06 2.13 123.86 1.77C123.64 1.41 123.36 1.23 123.02 1.23C123.4 0.949999 123.75 0.779999 124.07 0.719998C124.39 0.659999 124.67 0.629999 124.91 0.629999C125.81 0.629999 126.49 0.859999 126.95 1.32C127.41 1.78 127.64 2.52 127.64 3.54V16.23ZM140.4 16.23C140.4 17.01 140.49 17.59 140.67 17.97C140.85 18.33 141.09 18.51 141.39 18.51C141.05 18.77 140.74 18.93 140.46 18.99C140.2 19.05 139.96 19.08 139.74 19.08C138.98 19.08 138.39 18.85 137.97 18.39C137.55 17.93 137.34 17.19 137.34 16.17V11.37C137.34 10.61 137.16 10.03 136.8 9.63C136.46 9.21 136.06 9 135.6 9C135.4 9 135.17 9.07 134.91 9.21C134.67 9.33 134.43 9.51 134.19 9.75C133.97 9.99 133.78 10.28 133.62 10.62C133.46 10.94 133.38 11.29 133.38 11.67V16.23C133.38 17.01 133.48 17.59 133.68 17.97C133.9 18.33 134.18 18.51 134.52 18.51C134.14 18.77 133.79 18.93 133.47 18.99C133.15 19.05 132.87 19.08 132.63 19.08C131.73 19.08 131.05 18.85 130.59 18.39C130.13 17.93 129.9 17.19 129.9 16.17V11.4C129.9 10.6 129.79 10.02 129.57 9.66C129.37 9.3 129.1 9.12 128.76 9.12C129.14 8.84 129.49 8.67 129.81 8.61C130.13 8.55 130.41 8.52 130.65 8.52C131.85 8.52 132.66 8.95 133.08 9.81C133.42 9.45 133.8 9.15 134.22 8.91C134.64 8.65 135.1 8.52 135.6 8.52C137.06 8.52 138.22 8.9 139.08 9.66C139.96 10.42 140.4 11.48 140.4 12.84V16.23ZM147.398 8.52C148.338 8.52 149.208 8.83 150.008 9.45C150.808 10.05 151.448 10.97 151.928 12.21L145.448 15.21C145.728 15.77 146.048 16.27 146.408 16.71C146.768 17.13 147.138 17.47 147.518 17.73C147.958 18.07 148.358 18.25 148.718 18.27C149.098 18.27 149.418 18.19 149.678 18.03C149.958 17.87 150.178 17.66 150.338 17.4C150.518 17.12 150.638 16.88 150.698 16.68C150.938 16.66 151.098 16.7 151.178 16.8C151.258 16.88 151.278 16.99 151.238 17.13C151.218 17.27 151.158 17.42 151.058 17.58C150.978 17.72 150.888 17.83 150.788 17.91C150.428 18.23 149.958 18.51 149.378 18.75C148.818 18.97 148.198 19.08 147.518 19.08H147.398C146.678 19.08 145.998 18.95 145.358 18.69C144.738 18.41 144.188 18.03 143.708 17.55C143.228 17.07 142.848 16.52 142.568 15.9C142.308 15.26 142.178 14.58 142.178 13.86V13.74C142.178 13.02 142.308 12.35 142.568 11.73C142.848 11.09 143.228 10.54 143.708 10.08C144.188 9.6 144.738 9.22 145.358 8.94C145.998 8.66 146.678 8.52 147.398 8.52ZM147.038 13.95C147.598 13.69 148.018 13.41 148.298 13.11C148.578 12.81 148.738 12.51 148.778 12.21C148.818 11.91 148.758 11.61 148.598 11.31C148.458 10.99 148.248 10.68 147.968 10.38C147.508 9.92 147.068 9.6 146.648 9.42C146.228 9.24 145.838 9.24 145.478 9.42L145.328 9.48C145.048 9.62 144.828 9.86 144.668 10.2C144.528 10.54 144.448 10.95 144.428 11.43C144.408 11.89 144.458 12.4 144.578 12.96C144.718 13.52 144.918 14.08 145.178 14.64L145.238 14.79L147.038 13.95ZM159.231 14.04C159.651 14.44 160.001 14.84 160.281 15.24C160.561 15.62 160.681 16.04 160.641 16.5C160.601 16.94 160.441 17.33 160.161 17.67C159.901 17.99 159.571 18.27 159.171 18.51C158.771 18.73 158.331 18.89 157.851 18.99C157.371 19.07 156.911 19.09 156.471 19.05C155.111 18.93 154.061 18.52 153.321 17.82C153.201 17.7 153.091 17.55 152.991 17.37C152.891 17.19 152.851 17.01 152.871 16.83C152.891 16.63 152.981 16.46 153.141 16.32C153.301 16.16 153.591 16.05 154.011 15.99C154.011 16.25 154.051 16.52 154.131 16.8C154.231 17.06 154.371 17.3 154.551 17.52C154.731 17.74 154.951 17.93 155.211 18.09C155.471 18.25 155.771 18.34 156.111 18.36C156.591 18.4 156.961 18.33 157.221 18.15C157.481 17.95 157.631 17.68 157.671 17.34C157.691 17.06 157.591 16.78 157.371 16.5C157.151 16.2 156.861 15.89 156.501 15.57C156.161 15.25 155.771 14.93 155.331 14.61C154.911 14.27 154.521 13.93 154.161 13.59C153.281 12.81 152.871 11.99 152.931 11.13C152.971 10.69 153.111 10.31 153.351 9.99C153.611 9.65 153.931 9.37 154.311 9.15C154.691 8.91 155.101 8.74 155.541 8.64C156.001 8.54 156.461 8.51 156.921 8.55C158.281 8.67 159.331 9.08 160.071 9.78C160.191 9.9 160.301 10.06 160.401 10.26C160.501 10.44 160.541 10.63 160.521 10.83C160.501 11.01 160.411 11.18 160.251 11.34C160.091 11.48 159.801 11.58 159.381 11.64C159.381 11.38 159.331 11.12 159.231 10.86C159.151 10.58 159.021 10.33 158.841 10.11C158.661 9.89 158.441 9.7 158.181 9.54C157.921 9.38 157.621 9.28 157.281 9.24C156.801 9.2 156.391 9.28 156.051 9.48C155.711 9.66 155.521 9.92 155.481 10.26C155.461 10.54 155.571 10.83 155.811 11.13C156.071 11.43 156.391 11.74 156.771 12.06C157.151 12.36 157.561 12.68 158.001 13.02C158.441 13.36 158.851 13.7 159.231 14.04ZM168.225 14.04C168.645 14.44 168.995 14.84 169.275 15.24C169.555 15.62 169.675 16.04 169.635 16.5C169.595 16.94 169.435 17.33 169.155 17.67C168.895 17.99 168.565 18.27 168.165 18.51C167.765 18.73 167.325 18.89 166.845 18.99C166.365 19.07 165.905 19.09 165.465 19.05C164.105 18.93 163.055 18.52 162.315 17.82C162.195 17.7 162.085 17.55 161.985 17.37C161.885 17.19 161.845 17.01 161.865 16.83C161.885 16.63 161.975 16.46 162.135 16.32C162.295 16.16 162.585 16.05 163.005 15.99C163.005 16.25 163.045 16.52 163.125 16.8C163.225 17.06 163.365 17.3 163.545 17.52C163.725 17.74 163.945 17.93 164.205 18.09C164.465 18.25 164.765 18.34 165.105 18.36C165.585 18.4 165.955 18.33 166.215 18.15C166.475 17.95 166.625 17.68 166.665 17.34C166.685 17.06 166.585 16.78 166.365 16.5C166.145 16.2 165.855 15.89 165.495 15.57C165.155 15.25 164.765 14.93 164.325 14.61C163.905 14.27 163.515 13.93 163.155 13.59C162.275 12.81 161.865 11.99 161.925 11.13C161.965 10.69 162.105 10.31 162.345 9.99C162.605 9.65 162.925 9.37 163.305 9.15C163.685 8.91 164.095 8.74 164.535 8.64C164.995 8.54 165.455 8.51 165.915 8.55C167.275 8.67 168.325 9.08 169.065 9.78C169.185 9.9 169.295 10.06 169.395 10.26C169.495 10.44 169.535 10.63 169.515 10.83C169.495 11.01 169.405 11.18 169.245 11.34C169.085 11.48 168.795 11.58 168.375 11.64C168.375 11.38 168.325 11.12 168.225 10.86C168.145 10.58 168.015 10.33 167.835 10.11C167.655 9.89 167.435 9.7 167.175 9.54C166.915 9.38 166.615 9.28 166.275 9.24C165.795 9.2 165.385 9.28 165.045 9.48C164.705 9.66 164.515 9.92 164.475 10.26C164.455 10.54 164.565 10.83 164.805 11.13C165.065 11.43 165.385 11.74 165.765 12.06C166.145 12.36 166.555 12.68 166.995 13.02C167.435 13.36 167.845 13.7 168.225 14.04Z" fill="#45B5AA"/>
</svg>
