<svg width="84" height="20" viewBox="0 0 84 20" fill="none" xmlns="http://www.w3.org/2000/svg">
<path d="M13.05 16.41C13.25 16.35 13.45 16.46 13.65 16.74C13.87 17.02 14.01 17.33 14.07 17.67C14.15 18.01 14.11 18.33 13.95 18.63C13.81 18.93 13.48 19.08 12.96 19.08H4.98C4.08 19.08 3.39 18.85 2.91 18.39C2.45 17.93 2.22 17.21 2.22 16.23V4.26C2.22 3.56 2.1 3.05 1.86 2.73C1.64 2.41 1.39 2.2 1.11 2.1C0.77 1.98 0.4 1.96 0 2.04C0.02 1.82 0.17 1.61 0.45 1.41C0.75 1.19 1.11 1.01 1.53 0.87C1.95 0.729999 2.4 0.649999 2.88 0.629999C3.38 0.61 3.84 0.69 4.26 0.87C4.68 1.03 5.03 1.31 5.31 1.71C5.59 2.09 5.73 2.62 5.73 3.3V16.35C5.73 17.01 5.94 17.55 6.36 17.97C6.8 18.39 7.35 18.6 8.01 18.6H9.78C10.3 18.6 10.72 18.5 11.04 18.3C11.38 18.08 11.66 17.85 11.88 17.61C12.12 17.35 12.32 17.1 12.48 16.86C12.66 16.62 12.85 16.47 13.05 16.41ZM19.913 18.51C19.533 18.77 19.183 18.93 18.863 18.99C18.543 19.05 18.263 19.08 18.023 19.08C17.123 19.08 16.443 18.85 15.983 18.39C15.523 17.93 15.293 17.19 15.293 16.17V11.4C15.293 10.6 15.193 10.02 14.993 9.66C14.773 9.3 14.493 9.12 14.153 9.12C14.533 8.84 14.883 8.67 15.203 8.61C15.523 8.55 15.803 8.52 16.043 8.52C16.943 8.52 17.623 8.75 18.083 9.21C18.543 9.67 18.773 10.41 18.773 11.43V16.23C18.773 17.01 18.873 17.59 19.073 17.97C19.293 18.33 19.573 18.51 19.913 18.51ZM16.703 7.29C16.243 7.29 15.843 7.13 15.503 6.81C15.163 6.47 14.993 6.07 14.993 5.61C14.993 5.13 15.163 4.73 15.503 4.41C15.843 4.07 16.243 3.9 16.703 3.9C17.163 3.9 17.553 4.07 17.873 4.41C18.213 4.73 18.383 5.13 18.383 5.61C18.383 6.07 18.213 6.47 17.873 6.81C17.553 7.13 17.163 7.29 16.703 7.29ZM28.1161 9.06C28.1361 8.86 28.3061 8.71 28.6261 8.61C28.9461 8.51 29.2761 8.49 29.6161 8.55C29.9561 8.61 30.2361 8.77 30.4561 9.03C30.6761 9.27 30.6961 9.63 30.5161 10.11C30.4361 10.29 30.2761 10.69 30.0361 11.31C29.8161 11.93 29.5761 12.59 29.3161 13.29C29.0161 14.09 28.6861 14.98 28.3261 15.96C28.0061 16.86 27.6361 17.56 27.2161 18.06C26.8161 18.54 26.3861 18.84 25.9261 18.96C25.0861 19.18 24.3861 19.12 23.8261 18.78C23.2661 18.44 22.8661 17.78 22.6261 16.8C22.4061 15.92 22.2061 15.11 22.0261 14.37C21.9461 14.07 21.8661 13.77 21.7861 13.47C21.7261 13.15 21.6661 12.87 21.6061 12.63C21.5461 12.37 21.4861 12.15 21.4261 11.97C21.3861 11.79 21.3661 11.67 21.3661 11.61C21.1661 10.85 20.9261 10.32 20.6461 10.02C20.3861 9.7 20.0861 9.58 19.7461 9.66C20.0461 9.32 20.3361 9.08 20.6161 8.94C20.9161 8.8 21.1761 8.71 21.3961 8.67C22.2361 8.45 22.9361 8.51 23.4961 8.85C24.0561 9.17 24.4561 9.82 24.6961 10.8L25.2961 13.32C25.4561 13.96 25.5961 14.55 25.7161 15.09C25.8561 15.63 25.9361 15.93 25.9561 15.99C26.0761 16.43 26.2161 16.74 26.3761 16.92C26.5361 17.08 26.7061 17.14 26.8861 17.1C27.0661 17.06 27.2361 16.93 27.3961 16.71C27.5761 16.49 27.7261 16.21 27.8461 15.87C28.0261 15.37 28.1961 14.91 28.3561 14.49C28.4961 14.15 28.6161 13.82 28.7161 13.5C28.8361 13.18 28.9161 12.99 28.9561 12.93C29.1361 12.43 29.1861 11.99 29.1061 11.61C29.0461 11.23 28.9361 10.89 28.7761 10.59C28.6161 10.27 28.4561 9.99 28.2961 9.75C28.1561 9.51 28.0961 9.28 28.1161 9.06ZM37.0657 8.52C38.0057 8.52 38.8757 8.83 39.6757 9.45C40.4757 10.05 41.1157 10.97 41.5957 12.21L35.1157 15.21C35.3957 15.77 35.7157 16.27 36.0757 16.71C36.4357 17.13 36.8057 17.47 37.1857 17.73C37.6257 18.07 38.0257 18.25 38.3857 18.27C38.7657 18.27 39.0857 18.19 39.3457 18.03C39.6257 17.87 39.8457 17.66 40.0057 17.4C40.1857 17.12 40.3057 16.88 40.3657 16.68C40.6057 16.66 40.7657 16.7 40.8457 16.8C40.9257 16.88 40.9457 16.99 40.9057 17.13C40.8857 17.27 40.8257 17.42 40.7257 17.58C40.6457 17.72 40.5557 17.83 40.4557 17.91C40.0957 18.23 39.6257 18.51 39.0457 18.75C38.4857 18.97 37.8657 19.08 37.1857 19.08H37.0657C36.3457 19.08 35.6657 18.95 35.0257 18.69C34.4057 18.41 33.8557 18.03 33.3757 17.55C32.8957 17.07 32.5157 16.52 32.2357 15.9C31.9757 15.26 31.8457 14.58 31.8457 13.86V13.74C31.8457 13.02 31.9757 12.35 32.2357 11.73C32.5157 11.09 32.8957 10.54 33.3757 10.08C33.8557 9.6 34.4057 9.22 35.0257 8.94C35.6657 8.66 36.3457 8.52 37.0657 8.52ZM36.7057 13.95C37.2657 13.69 37.6857 13.41 37.9657 13.11C38.2457 12.81 38.4057 12.51 38.4457 12.21C38.4857 11.91 38.4257 11.61 38.2657 11.31C38.1257 10.99 37.9157 10.68 37.6357 10.38C37.1757 9.92 36.7357 9.6 36.3157 9.42C35.8957 9.24 35.5057 9.24 35.1457 9.42L34.9957 9.48C34.7157 9.62 34.4957 9.86 34.3357 10.2C34.1957 10.54 34.1157 10.95 34.0957 11.43C34.0757 11.89 34.1257 12.4 34.2457 12.96C34.3857 13.52 34.5857 14.08 34.8457 14.64L34.9057 14.79L36.7057 13.95ZM53.7396 16.23C53.7396 17.01 53.8296 17.59 54.0096 17.97C54.1896 18.33 54.4296 18.51 54.7296 18.51C54.3896 18.77 54.0796 18.93 53.7996 18.99C53.5396 19.05 53.2996 19.08 53.0796 19.08C52.3196 19.08 51.7296 18.85 51.3096 18.39C50.8896 17.93 50.6796 17.19 50.6796 16.17V11.37C50.6796 10.61 50.4996 10.03 50.1396 9.63C49.7996 9.21 49.3996 9 48.9396 9C48.7396 9 48.5096 9.07 48.2496 9.21C48.0096 9.33 47.7696 9.51 47.5296 9.75C47.3096 9.99 47.1196 10.28 46.9596 10.62C46.7996 10.94 46.7196 11.29 46.7196 11.67V16.23C46.7196 17.01 46.8196 17.59 47.0196 17.97C47.2396 18.33 47.5196 18.51 47.8596 18.51C47.4796 18.77 47.1296 18.93 46.8096 18.99C46.4896 19.05 46.2096 19.08 45.9696 19.08C45.0696 19.08 44.3896 18.85 43.9296 18.39C43.4696 17.93 43.2396 17.19 43.2396 16.17V11.4C43.2396 10.6 43.1296 10.02 42.9096 9.66C42.7096 9.3 42.4396 9.12 42.0996 9.12C42.4796 8.84 42.8296 8.67 43.1496 8.61C43.4696 8.55 43.7496 8.52 43.9896 8.52C45.1896 8.52 45.9996 8.95 46.4196 9.81C46.7596 9.45 47.1396 9.15 47.5596 8.91C47.9796 8.65 48.4396 8.52 48.9396 8.52C50.3996 8.52 51.5596 8.9 52.4196 9.66C53.2996 10.42 53.7396 11.48 53.7396 12.84V16.23ZM60.7376 8.52C61.6776 8.52 62.5476 8.83 63.3476 9.45C64.1476 10.05 64.7876 10.97 65.2676 12.21L58.7876 15.21C59.0676 15.77 59.3876 16.27 59.7476 16.71C60.1076 17.13 60.4776 17.47 60.8576 17.73C61.2976 18.07 61.6976 18.25 62.0576 18.27C62.4376 18.27 62.7576 18.19 63.0176 18.03C63.2976 17.87 63.5176 17.66 63.6776 17.4C63.8576 17.12 63.9776 16.88 64.0376 16.68C64.2776 16.66 64.4376 16.7 64.5176 16.8C64.5976 16.88 64.6176 16.99 64.5776 17.13C64.5576 17.27 64.4976 17.42 64.3976 17.58C64.3176 17.72 64.2276 17.83 64.1276 17.91C63.7676 18.23 63.2976 18.51 62.7176 18.75C62.1576 18.97 61.5376 19.08 60.8576 19.08H60.7376C60.0176 19.08 59.3376 18.95 58.6976 18.69C58.0776 18.41 57.5276 18.03 57.0476 17.55C56.5676 17.07 56.1876 16.52 55.9076 15.9C55.6476 15.26 55.5176 14.58 55.5176 13.86V13.74C55.5176 13.02 55.6476 12.35 55.9076 11.73C56.1876 11.09 56.5676 10.54 57.0476 10.08C57.5276 9.6 58.0776 9.22 58.6976 8.94C59.3376 8.66 60.0176 8.52 60.7376 8.52ZM60.3776 13.95C60.9376 13.69 61.3576 13.41 61.6376 13.11C61.9176 12.81 62.0776 12.51 62.1176 12.21C62.1576 11.91 62.0976 11.61 61.9376 11.31C61.7976 10.99 61.5876 10.68 61.3076 10.38C60.8476 9.92 60.4076 9.6 59.9876 9.42C59.5676 9.24 59.1776 9.24 58.8176 9.42L58.6676 9.48C58.3876 9.62 58.1676 9.86 58.0076 10.2C57.8676 10.54 57.7876 10.95 57.7676 11.43C57.7476 11.89 57.7976 12.4 57.9176 12.96C58.0576 13.52 58.2576 14.08 58.5176 14.64L58.5776 14.79L60.3776 13.95ZM72.5709 14.04C72.9909 14.44 73.3409 14.84 73.6209 15.24C73.9009 15.62 74.0209 16.04 73.9809 16.5C73.9409 16.94 73.7809 17.33 73.5009 17.67C73.2409 17.99 72.9109 18.27 72.5109 18.51C72.1109 18.73 71.6709 18.89 71.1909 18.99C70.7109 19.07 70.2509 19.09 69.8109 19.05C68.4509 18.93 67.4009 18.52 66.6609 17.82C66.5409 17.7 66.4309 17.55 66.3309 17.37C66.2309 17.19 66.1909 17.01 66.2109 16.83C66.2309 16.63 66.3209 16.46 66.4809 16.32C66.6409 16.16 66.9309 16.05 67.3509 15.99C67.3509 16.25 67.3909 16.52 67.4709 16.8C67.5709 17.06 67.7109 17.3 67.8909 17.52C68.0709 17.74 68.2909 17.93 68.5509 18.09C68.8109 18.25 69.1109 18.34 69.4509 18.36C69.9309 18.4 70.3009 18.33 70.5609 18.15C70.8209 17.95 70.9709 17.68 71.0109 17.34C71.0309 17.06 70.9309 16.78 70.7109 16.5C70.4909 16.2 70.2009 15.89 69.8409 15.57C69.5009 15.25 69.1109 14.93 68.6709 14.61C68.2509 14.27 67.8609 13.93 67.5009 13.59C66.6209 12.81 66.2109 11.99 66.2709 11.13C66.3109 10.69 66.4509 10.31 66.6909 9.99C66.9509 9.65 67.2709 9.37 67.6509 9.15C68.0309 8.91 68.4409 8.74 68.8809 8.64C69.3409 8.54 69.8009 8.51 70.2609 8.55C71.6209 8.67 72.6709 9.08 73.4109 9.78C73.5309 9.9 73.6409 10.06 73.7409 10.26C73.8409 10.44 73.8809 10.63 73.8609 10.83C73.8409 11.01 73.7509 11.18 73.5909 11.34C73.4309 11.48 73.1409 11.58 72.7209 11.64C72.7209 11.38 72.6709 11.12 72.5709 10.86C72.4909 10.58 72.3609 10.33 72.1809 10.11C72.0009 9.89 71.7809 9.7 71.5209 9.54C71.2609 9.38 70.9609 9.28 70.6209 9.24C70.1409 9.2 69.7309 9.28 69.3909 9.48C69.0509 9.66 68.8609 9.92 68.8209 10.26C68.8009 10.54 68.9109 10.83 69.1509 11.13C69.4109 11.43 69.7309 11.74 70.1109 12.06C70.4909 12.36 70.9009 12.68 71.3409 13.02C71.7809 13.36 72.1909 13.7 72.5709 14.04ZM81.5651 14.04C81.9851 14.44 82.3351 14.84 82.6151 15.24C82.8951 15.62 83.0151 16.04 82.9751 16.5C82.9351 16.94 82.7751 17.33 82.4951 17.67C82.2351 17.99 81.9051 18.27 81.5051 18.51C81.1051 18.73 80.6651 18.89 80.1851 18.99C79.7051 19.07 79.2451 19.09 78.8051 19.05C77.4451 18.93 76.3951 18.52 75.6551 17.82C75.5351 17.7 75.4251 17.55 75.3251 17.37C75.2251 17.19 75.1851 17.01 75.2051 16.83C75.2251 16.63 75.3151 16.46 75.4751 16.32C75.6351 16.16 75.9251 16.05 76.3451 15.99C76.3451 16.25 76.3851 16.52 76.4651 16.8C76.5651 17.06 76.7051 17.3 76.8851 17.52C77.0651 17.74 77.2851 17.93 77.5451 18.09C77.8051 18.25 78.1051 18.34 78.4451 18.36C78.9251 18.4 79.2951 18.33 79.5551 18.15C79.8151 17.95 79.9651 17.68 80.0051 17.34C80.0251 17.06 79.9251 16.78 79.7051 16.5C79.4851 16.2 79.1951 15.89 78.8351 15.57C78.4951 15.25 78.1051 14.93 77.6651 14.61C77.2451 14.27 76.8551 13.93 76.4951 13.59C75.6151 12.81 75.2051 11.99 75.2651 11.13C75.3051 10.69 75.4451 10.31 75.6851 9.99C75.9451 9.65 76.2651 9.37 76.6451 9.15C77.0251 8.91 77.4351 8.74 77.8751 8.64C78.3351 8.54 78.7951 8.51 79.2551 8.55C80.6151 8.67 81.6651 9.08 82.4051 9.78C82.5251 9.9 82.6351 10.06 82.7351 10.26C82.8351 10.44 82.8751 10.63 82.8551 10.83C82.8351 11.01 82.7451 11.18 82.5851 11.34C82.4251 11.48 82.1351 11.58 81.7151 11.64C81.7151 11.38 81.6651 11.12 81.5651 10.86C81.4851 10.58 81.3551 10.33 81.1751 10.11C80.9951 9.89 80.7751 9.7 80.5151 9.54C80.2551 9.38 79.9551 9.28 79.6151 9.24C79.1351 9.2 78.7251 9.28 78.3851 9.48C78.0451 9.66 77.8551 9.92 77.8151 10.26C77.7951 10.54 77.9051 10.83 78.1451 11.13C78.4051 11.43 78.7251 11.74 79.1051 12.06C79.4851 12.36 79.8951 12.68 80.3351 13.02C80.7751 13.36 81.1851 13.7 81.5651 14.04Z" fill="#45B5AA"/>
</svg>
