<svg width="104" height="28" viewBox="0 0 104 28" fill="none" xmlns="http://www.w3.org/2000/svg">
<path d="M9.66 0.629999C10.42 0.629999 11.14 0.769999 11.82 1.05C12.5 1.33 13.09 1.71 13.59 2.19C14.11 2.67 14.51 3.23 14.79 3.87C15.09 4.51 15.24 5.19 15.24 5.91C15.24 6.63 15.09 7.31 14.79 7.95C14.51 8.59 14.11 9.15 13.59 9.63C13.09 10.11 12.5 10.49 11.82 10.77C11.14 11.05 10.42 11.19 9.66 11.19H5.73V15.45C5.73 16.15 5.84 16.66 6.06 16.98C6.3 17.3 6.56 17.51 6.84 17.61C7.16 17.73 7.53 17.75 7.95 17.67C7.93 17.85 7.83 18.02 7.65 18.18C7.47 18.34 7.23 18.49 6.93 18.63C6.65 18.77 6.33 18.88 5.97 18.96C5.63 19.04 5.28 19.08 4.92 19.08C4.58 19.08 4.24 19.04 3.9 18.96C3.58 18.86 3.29 18.71 3.03 18.51C2.79 18.29 2.59 18.01 2.43 17.67C2.29 17.33 2.22 16.91 2.22 16.41V4.26C2.22 3.56 2.1 3.05 1.86 2.73C1.64 2.41 1.39 2.2 1.11 2.1C0.77 1.98 0.4 1.96 0 2.04C0.02 1.86 0.12 1.69 0.3 1.53C0.48 1.37 0.71 1.22 0.99 1.08C1.27 0.94 1.59 0.83 1.95 0.75C2.31 0.669999 2.67 0.629999 3.03 0.629999H9.66ZM6.63 10.71C7.33 10.71 7.99 10.59 8.61 10.35C9.23 10.09 9.77 9.74 10.23 9.3C10.69 8.86 11.05 8.35 11.31 7.77C11.59 7.19 11.73 6.57 11.73 5.91C11.73 5.25 11.59 4.63 11.31 4.05C11.05 3.47 10.69 2.96 10.23 2.52C9.77 2.08 9.23 1.74 8.61 1.5C7.99 1.24 7.33 1.11 6.63 1.11H5.73V10.71H6.63ZM19.7834 8.52C20.5034 8.52 21.1734 8.66 21.7934 8.94C22.4334 9.22 22.9834 9.6 23.4434 10.08C23.9234 10.54 24.2934 11.09 24.5534 11.73C24.8334 12.35 24.9734 13.02 24.9734 13.74V13.86C24.9734 14.58 24.8334 15.26 24.5534 15.9C24.2934 16.52 23.9234 17.07 23.4434 17.55C22.9834 18.03 22.4334 18.41 21.7934 18.69C21.1734 18.95 20.5034 19.08 19.7834 19.08H19.6634C18.9434 19.08 18.2634 18.95 17.6234 18.69C17.0034 18.41 16.4534 18.03 15.9734 17.55C15.4934 17.07 15.1134 16.52 14.8334 15.9C14.5734 15.26 14.4434 14.58 14.4434 13.86V13.74C14.4434 13.02 14.5734 12.35 14.8334 11.73C15.1134 11.09 15.4934 10.54 15.9734 10.08C16.4534 9.6 17.0034 9.22 17.6234 8.94C18.2634 8.66 18.9434 8.52 19.6634 8.52H19.7834ZM21.7934 18.09C22.0734 17.95 22.2834 17.71 22.4234 17.37C22.5834 17.03 22.6734 16.63 22.6934 16.17C22.7134 15.69 22.6534 15.17 22.5134 14.61C22.3934 14.05 22.2034 13.49 21.9434 12.93L21.8234 12.63C21.5434 12.07 21.2234 11.56 20.8634 11.1C20.5234 10.64 20.1634 10.27 19.7834 9.99C19.4234 9.69 19.0634 9.49 18.7034 9.39C18.3434 9.27 18.0234 9.28 17.7434 9.42L17.5934 9.48C17.3134 9.62 17.0934 9.86 16.9334 10.2C16.7934 10.54 16.7134 10.95 16.6934 11.43C16.6734 11.89 16.7234 12.4 16.8434 12.96C16.9834 13.52 17.1834 14.08 17.4434 14.64L17.5934 14.94C17.8534 15.52 18.1534 16.04 18.4934 16.5C18.8534 16.94 19.2134 17.31 19.5734 17.61C19.9534 17.91 20.3234 18.11 20.6834 18.21C21.0434 18.31 21.3634 18.3 21.6434 18.18L21.7934 18.09ZM32.6876 8.52C33.4076 8.52 34.0776 8.66 34.6976 8.94C35.3376 9.22 35.8976 9.6 36.3776 10.08C36.8576 10.54 37.2276 11.09 37.4876 11.73C37.7676 12.35 37.9076 13.02 37.9076 13.74V13.86C37.9076 14.58 37.7676 15.26 37.4876 15.9C37.2276 16.52 36.8576 17.07 36.3776 17.55C35.8976 18.03 35.3376 18.41 34.6976 18.69C34.0776 18.95 33.4076 19.08 32.6876 19.08H32.5676C31.7076 19.08 30.8976 18.88 30.1376 18.48V24.63C30.1376 25.41 30.2376 25.98 30.4376 26.34C30.6576 26.72 30.9376 26.91 31.2776 26.91C30.8976 27.19 30.5476 27.35 30.2276 27.39C29.9076 27.45 29.6276 27.48 29.3876 27.48C28.4876 27.48 27.8076 27.25 27.3476 26.79C26.8876 26.33 26.6576 25.6 26.6576 24.6V11.4C26.6576 10.6 26.5476 10.02 26.3276 9.66C26.1276 9.3 25.8576 9.12 25.5176 9.12C25.8976 8.84 26.2476 8.67 26.5676 8.61C26.8876 8.55 27.1676 8.52 27.4076 8.52C28.4476 8.52 29.1876 8.83 29.6276 9.45C30.0476 9.17 30.5076 8.95 31.0076 8.79C31.5076 8.61 32.0276 8.52 32.5676 8.52H32.6876ZM30.1376 17.67C30.6176 17.97 31.1076 18.12 31.6076 18.12C32.1276 18.12 32.5876 17.97 32.9876 17.67C33.4076 17.35 33.7476 16.87 34.0076 16.23C34.2676 15.59 34.3976 14.78 34.3976 13.8C34.3976 12.8 34.2576 11.98 33.9776 11.34C33.6976 10.68 33.3376 10.2 32.8976 9.9C32.4776 9.6 32.0076 9.47 31.4876 9.51C30.9676 9.53 30.4576 9.72 29.9576 10.08C30.0776 10.44 30.1376 10.89 30.1376 11.43V17.67ZM49.8668 16.23C49.8668 17.01 49.9668 17.59 50.1668 17.97C50.3868 18.33 50.6668 18.51 51.0068 18.51C50.6268 18.77 50.2768 18.93 49.9568 18.99C49.6368 19.05 49.3568 19.08 49.1168 19.08C47.8568 19.08 47.0368 18.63 46.6568 17.73C46.3168 18.11 45.9368 18.43 45.5168 18.69C45.0968 18.95 44.6368 19.08 44.1368 19.08C42.6968 19.08 41.5468 18.7 40.6868 17.94C39.8468 17.18 39.4268 16.12 39.4268 14.76V11.4C39.4268 10.6 39.3368 10.02 39.1568 9.66C38.9968 9.3 38.7668 9.12 38.4668 9.12C38.8068 8.84 39.1068 8.67 39.3668 8.61C39.6268 8.55 39.8668 8.52 40.0868 8.52C40.8468 8.52 41.4268 8.75 41.8268 9.21C42.2268 9.67 42.4268 10.41 42.4268 11.43V16.23C42.4268 16.99 42.5968 17.58 42.9368 18C43.2968 18.4 43.6968 18.6 44.1368 18.6C44.3368 18.6 44.5668 18.53 44.8268 18.39C45.0868 18.23 45.3268 18.02 45.5468 17.76C45.7668 17.5 45.9568 17.2 46.1168 16.86C46.2768 16.52 46.3568 16.16 46.3568 15.78V11.4C46.3568 10.6 46.2568 10.02 46.0568 9.66C45.8568 9.3 45.5868 9.12 45.2468 9.12C45.6268 8.84 45.9768 8.67 46.2968 8.61C46.6168 8.55 46.8868 8.52 47.1068 8.52C48.0068 8.52 48.6868 8.75 49.1468 9.21C49.6268 9.67 49.8668 10.41 49.8668 11.43V16.23ZM55.189 16.23C55.189 17.01 55.289 17.59 55.489 17.97C55.709 18.33 55.989 18.51 56.329 18.51C55.949 18.77 55.599 18.93 55.279 18.99C54.959 19.05 54.679 19.08 54.439 19.08C53.539 19.08 52.859 18.85 52.399 18.39C51.939 17.93 51.709 17.19 51.709 16.17V3.51C51.709 2.71 51.609 2.13 51.409 1.77C51.189 1.41 50.909 1.23 50.569 1.23C50.949 0.949999 51.299 0.779999 51.619 0.719998C51.939 0.659999 52.219 0.629999 52.459 0.629999C53.359 0.629999 54.039 0.859999 54.499 1.32C54.959 1.78 55.189 2.52 55.189 3.54V16.23ZM66.7017 16.23C66.7017 17.01 66.8017 17.59 67.0017 17.97C67.2217 18.33 67.5017 18.51 67.8417 18.51C67.4617 18.77 67.1117 18.93 66.7917 18.99C66.4717 19.05 66.1917 19.08 65.9517 19.08C64.7517 19.08 63.9517 18.67 63.5517 17.85C63.0317 18.27 62.4617 18.58 61.8417 18.78C61.2417 18.98 60.7217 19.08 60.2817 19.08C59.8417 19.08 59.4217 19.03 59.0217 18.93C58.6417 18.81 58.3017 18.65 58.0017 18.45C57.7017 18.23 57.4617 17.96 57.2817 17.64C57.1017 17.3 57.0117 16.9 57.0117 16.44C57.0117 15.78 57.2517 15.21 57.7317 14.73C58.2117 14.23 58.7817 13.81 59.4417 13.47C60.1217 13.11 60.8117 12.84 61.5117 12.66C62.2117 12.46 62.7817 12.33 63.2217 12.27V11.37C63.2217 10.61 63.0117 10.03 62.5917 9.63C62.1917 9.21 61.7317 9 61.2117 9C60.8717 9 60.5417 9.09 60.2217 9.27C59.9217 9.45 59.6517 9.69 59.4117 9.99C59.1717 10.29 58.9817 10.65 58.8417 11.07C58.7017 11.49 58.6317 11.94 58.6317 12.42C58.2717 12.42 58.0017 12.34 57.8217 12.18C57.6617 12 57.5717 11.79 57.5517 11.55C57.5317 11.29 57.5717 11.02 57.6717 10.74C57.7917 10.46 57.9517 10.21 58.1517 9.99C58.6117 9.51 59.0817 9.15 59.5617 8.91C60.0417 8.65 60.5917 8.52 61.2117 8.52C62.8917 8.52 64.2217 8.9 65.2017 9.66C66.2017 10.42 66.7017 11.48 66.7017 12.84V16.23ZM63.3717 17.4C63.3117 17.22 63.2717 17.03 63.2517 16.83C63.2317 16.63 63.2217 16.41 63.2217 16.17V12.78C62.6617 12.92 62.1617 13.12 61.7217 13.38C61.3017 13.62 60.9417 13.91 60.6417 14.25C60.3417 14.57 60.1217 14.92 59.9817 15.3C59.8617 15.66 59.8217 16.03 59.8617 16.41C59.9217 16.87 60.0817 17.22 60.3417 17.46C60.6217 17.7 60.9317 17.86 61.2717 17.94C61.6317 18 62.0017 17.98 62.3817 17.88C62.7617 17.78 63.0917 17.62 63.3717 17.4ZM77.5109 9.21C77.7509 9.35 77.9209 9.56 78.0209 9.84C78.1209 10.12 78.1509 10.41 78.1109 10.71C78.0909 11.01 77.9909 11.3 77.8109 11.58C77.6509 11.86 77.4209 12.07 77.1209 12.21L76.8209 11.7C76.5209 11.24 76.2009 10.85 75.8609 10.53C75.5409 10.21 75.2109 9.96 74.8709 9.78C74.5509 9.6 74.2409 9.5 73.9409 9.48C73.6409 9.46 73.3809 9.52 73.1609 9.66L73.0409 9.72C72.7409 9.96 72.5609 10.35 72.5009 10.89V16.23C72.5009 17.01 72.6009 17.59 72.8009 17.97C73.0209 18.33 73.3009 18.51 73.6409 18.51C73.2609 18.77 72.9109 18.93 72.5909 18.99C72.2709 19.05 71.9909 19.08 71.7509 19.08C70.8509 19.08 70.1709 18.85 69.7109 18.39C69.2509 17.93 69.0209 17.19 69.0209 16.17V11.4C69.0209 10.6 68.9109 10.02 68.6909 9.66C68.4909 9.3 68.2209 9.12 67.8809 9.12C68.2609 8.84 68.6109 8.67 68.9309 8.61C69.2509 8.55 69.5309 8.52 69.7709 8.52C70.9909 8.52 71.8109 8.96 72.2309 9.84C72.9109 9.12 73.7409 8.7 74.7209 8.58H74.8409C75.3209 8.52 75.7809 8.55 76.2209 8.67C76.6809 8.79 77.1109 8.97 77.5109 9.21ZM83.8095 18.51C83.4295 18.77 83.0795 18.93 82.7595 18.99C82.4395 19.05 82.1595 19.08 81.9195 19.08C81.0195 19.08 80.3395 18.85 79.8795 18.39C79.4195 17.93 79.1895 17.19 79.1895 16.17V11.4C79.1895 10.6 79.0895 10.02 78.8895 9.66C78.6695 9.3 78.3895 9.12 78.0495 9.12C78.4295 8.84 78.7795 8.67 79.0995 8.61C79.4195 8.55 79.6995 8.52 79.9395 8.52C80.8395 8.52 81.5195 8.75 81.9795 9.21C82.4395 9.67 82.6695 10.41 82.6695 11.43V16.23C82.6695 17.01 82.7695 17.59 82.9695 17.97C83.1895 18.33 83.4695 18.51 83.8095 18.51ZM80.5995 7.29C80.1395 7.29 79.7395 7.13 79.3995 6.81C79.0595 6.47 78.8895 6.07 78.8895 5.61C78.8895 5.13 79.0595 4.73 79.3995 4.41C79.7395 4.07 80.1395 3.9 80.5995 3.9C81.0595 3.9 81.4495 4.07 81.7695 4.41C82.1095 4.73 82.2795 5.13 82.2795 5.61C82.2795 6.07 82.1095 6.47 81.7695 6.81C81.4495 7.13 81.0595 7.29 80.5995 7.29ZM91.3282 18.27C91.4882 18.17 91.6382 18.12 91.7782 18.12C91.9382 18.12 92.0382 18.16 92.0782 18.24C92.1382 18.3 92.1282 18.39 92.0482 18.51C91.9882 18.63 91.8082 18.75 91.5082 18.87C91.0282 19.09 90.5382 19.2 90.0382 19.2C88.3582 19.2 87.0182 18.82 86.0182 18.06C85.0382 17.3 84.5482 16.24 84.5482 14.88V3.51C84.5482 2.71 84.4382 2.13 84.2182 1.77C84.0182 1.41 83.7482 1.23 83.4082 1.23C83.7882 0.949999 84.1382 0.779999 84.4582 0.719998C84.7782 0.659999 85.0582 0.629999 85.2982 0.629999C86.1982 0.629999 86.8782 0.859999 87.3382 1.32C87.7982 1.78 88.0282 2.52 88.0282 3.54V8.52H89.7682C90.3082 8.52 90.6782 8.66 90.8782 8.94C91.0982 9.22 91.2082 9.53 91.2082 9.87C91.2282 10.19 91.1682 10.49 91.0282 10.77C90.8882 11.05 90.7182 11.19 90.5182 11.19C90.5182 11.01 90.4482 10.8 90.3082 10.56C90.1882 10.3 90.0182 10.06 89.7982 9.84C89.5782 9.6 89.3182 9.4 89.0182 9.24C88.7182 9.08 88.3882 9 88.0282 9V16.35C88.0282 17.11 88.2282 17.7 88.6282 18.12C89.0482 18.52 89.5182 18.72 90.0382 18.72C90.4782 18.72 90.9082 18.57 91.3282 18.27ZM100.926 8.52C101.826 8.52 102.506 8.75 102.966 9.21C103.426 9.67 103.656 10.41 103.656 11.43V23.16C103.656 24.52 103.156 25.58 102.156 26.34C101.176 27.1 99.8459 27.48 98.1659 27.48C97.5259 27.48 96.9859 27.37 96.5459 27.15C96.1059 26.93 95.7359 26.67 95.4359 26.37C95.0959 26.01 94.8759 25.64 94.7759 25.26C94.6959 24.9 94.6959 24.57 94.7759 24.27C94.8759 23.97 95.0259 23.72 95.2259 23.52C95.4459 23.32 95.6859 23.22 95.9459 23.22C95.9459 23.74 96.0059 24.23 96.1259 24.69C96.2459 25.17 96.4059 25.58 96.6059 25.92C96.8059 26.26 97.0359 26.53 97.2959 26.73C97.5759 26.93 97.8659 27.03 98.1659 27.03C98.6859 27.03 99.1459 26.79 99.5459 26.31C99.9659 25.85 100.176 25.17 100.176 24.27V18.03C99.8559 18.33 99.5059 18.58 99.1259 18.78C98.7459 18.98 98.3459 19.08 97.9259 19.08C96.4859 19.08 95.3359 18.7 94.4759 17.94C93.6359 17.18 93.2159 16.12 93.2159 14.76V11.4C93.2159 10.6 93.1259 10.02 92.9459 9.66C92.7859 9.3 92.5559 9.12 92.2559 9.12C92.5959 8.84 92.8959 8.67 93.1559 8.61C93.4159 8.55 93.6559 8.52 93.8759 8.52C94.6359 8.52 95.2159 8.75 95.6159 9.21C96.0159 9.67 96.2159 10.41 96.2159 11.43V16.23C96.2159 16.99 96.3859 17.58 96.7259 18C97.0859 18.4 97.4859 18.6 97.9259 18.6C98.1259 18.6 98.3559 18.53 98.6159 18.39C98.8759 18.25 99.1159 18.06 99.3359 17.82C99.5759 17.56 99.7759 17.24 99.9359 16.86C100.096 16.48 100.176 16.05 100.176 15.57C100.176 14.25 100.166 13.24 100.146 12.54C100.146 11.82 100.146 11.44 100.146 11.4C100.146 10.6 100.046 10.02 99.8459 9.66C99.6459 9.3 99.3759 9.12 99.0359 9.12C99.4159 8.84 99.7659 8.67 100.086 8.61C100.406 8.55 100.686 8.52 100.926 8.52Z" fill="#45B5AA"/>
</svg>
