<svg width="54" height="19" viewBox="0 0 54 19" fill="none" xmlns="http://www.w3.org/2000/svg">
<path d="M16.372 1.016C16.8573 1.016 17.1653 1.156 17.296 1.436C17.4453 1.716 17.4827 2.01467 17.408 2.332C17.352 2.64933 17.2213 2.93867 17.016 3.2C16.8293 3.44267 16.6427 3.536 16.456 3.48C16.2693 3.424 16.092 3.29333 15.924 3.088C15.7747 2.864 15.588 2.63067 15.364 2.388C15.1587 2.14533 14.8973 1.93067 14.58 1.744C14.2813 1.55733 13.8893 1.464 13.404 1.464H12.9V1.436H10.856V14.82C10.856 15.4733 10.9587 15.9493 11.164 16.248C11.388 16.5467 11.6307 16.7427 11.892 16.836C12.1907 16.948 12.536 16.9667 12.928 16.892C12.9093 17.06 12.816 17.2187 12.648 17.368C12.48 17.5173 12.2653 17.6573 12.004 17.788C11.7427 17.9187 11.444 18.0213 11.108 18.096C10.772 18.1707 10.436 18.208 10.1 18.208C9.78267 18.208 9.46533 18.1707 9.148 18.096C8.84933 18.0027 8.57867 17.8627 8.336 17.676C8.112 17.4707 7.92533 17.2093 7.776 16.892C7.64533 16.5747 7.58 16.1827 7.58 15.716V1.436H5.564V1.464H5.032C4.54667 1.464 4.14533 1.55733 3.828 1.744C3.52933 1.93067 3.27733 2.14533 3.072 2.388C2.86667 2.63067 2.68 2.864 2.512 3.088C2.344 3.29333 2.16667 3.424 1.98 3.48C1.812 3.536 1.62533 3.44267 1.42 3.2C1.23333 2.93867 1.10267 2.64933 1.028 2.332C0.972 2.01467 1.00933 1.716 1.14 1.436C1.28933 1.156 1.60667 1.016 2.092 1.016H4.948V0.987999H13.516V1.016H16.372ZM22.8396 8.996C23.0636 9.12667 23.2222 9.32267 23.3156 9.584C23.4089 9.84533 23.4369 10.116 23.3996 10.396C23.3809 10.676 23.2876 10.9467 23.1196 11.208C22.9702 11.4693 22.7556 11.6653 22.4756 11.796L22.1956 11.32C21.9156 10.8907 21.6169 10.5267 21.2996 10.228C21.0009 9.92933 20.6929 9.696 20.3756 9.528C20.0769 9.36 19.7876 9.26667 19.5076 9.248C19.2276 9.22933 18.9849 9.28533 18.7796 9.416L18.6676 9.472C18.3876 9.696 18.2196 10.06 18.1636 10.564V15.548C18.1636 16.276 18.2569 16.8173 18.4436 17.172C18.6489 17.508 18.9102 17.676 19.2276 17.676C18.8729 17.9187 18.5462 18.068 18.2476 18.124C17.9489 18.18 17.6876 18.208 17.4636 18.208C16.6236 18.208 15.9889 17.9933 15.5596 17.564C15.1302 17.1347 14.9156 16.444 14.9156 15.492V11.04C14.9156 10.2933 14.8129 9.752 14.6076 9.416C14.4209 9.08 14.1689 8.912 13.8516 8.912C14.2062 8.65067 14.5329 8.492 14.8316 8.436C15.1302 8.38 15.3916 8.352 15.6156 8.352C16.7542 8.352 17.5196 8.76267 17.9116 9.584C18.5462 8.912 19.3209 8.52 20.2356 8.408H20.3476C20.7956 8.352 21.2249 8.38 21.6356 8.492C22.0649 8.604 22.4662 8.772 22.8396 8.996ZM32.794 15.548C32.794 16.276 32.8873 16.8173 33.074 17.172C33.2793 17.508 33.5407 17.676 33.858 17.676C33.5033 17.9187 33.1767 18.068 32.878 18.124C32.5793 18.18 32.318 18.208 32.094 18.208C30.974 18.208 30.2273 17.8253 29.854 17.06C29.3687 17.452 28.8367 17.7413 28.258 17.928C27.698 18.1147 27.2127 18.208 26.802 18.208C26.3913 18.208 25.9993 18.1613 25.626 18.068C25.2713 17.956 24.954 17.8067 24.674 17.62C24.394 17.4147 24.17 17.1627 24.002 16.864C23.834 16.5467 23.75 16.1733 23.75 15.744C23.75 15.128 23.974 14.596 24.422 14.148C24.87 13.6813 25.402 13.2893 26.018 12.972C26.6527 12.636 27.2967 12.384 27.95 12.216C28.6033 12.0293 29.1353 11.908 29.546 11.852V11.012C29.546 10.3027 29.35 9.76133 28.958 9.388C28.5847 8.996 28.1553 8.8 27.67 8.8C27.3527 8.8 27.0447 8.884 26.746 9.052C26.466 9.22 26.214 9.444 25.99 9.724C25.766 10.004 25.5887 10.34 25.458 10.732C25.3273 11.124 25.262 11.544 25.262 11.992C24.926 11.992 24.674 11.9173 24.506 11.768C24.3567 11.6 24.2727 11.404 24.254 11.18C24.2353 10.9373 24.2727 10.6853 24.366 10.424C24.478 10.1627 24.6273 9.92933 24.814 9.724C25.2433 9.276 25.682 8.94 26.13 8.716C26.578 8.47333 27.0913 8.352 27.67 8.352C29.238 8.352 30.4793 8.70667 31.394 9.416C32.3273 10.1253 32.794 11.1147 32.794 12.384V15.548ZM29.686 16.64C29.63 16.472 29.5927 16.2947 29.574 16.108C29.5553 15.9213 29.546 15.716 29.546 15.492V12.328C29.0233 12.4587 28.5567 12.6453 28.146 12.888C27.754 13.112 27.418 13.3827 27.138 13.7C26.858 13.9987 26.6527 14.3253 26.522 14.68C26.41 15.016 26.3727 15.3613 26.41 15.716C26.466 16.1453 26.6153 16.472 26.858 16.696C27.1193 16.92 27.4087 17.0693 27.726 17.144C28.062 17.2 28.4073 17.1813 28.762 17.088C29.1167 16.9947 29.4247 16.8453 29.686 16.64ZM51.6901 15.38C52.1007 15.9773 52.4927 16.4067 52.8661 16.668C53.2394 16.9107 53.5567 16.948 53.8181 16.78C53.6127 17.172 53.3327 17.4987 52.9781 17.76C52.6421 18.0027 52.2687 18.152 51.8581 18.208C51.4474 18.2453 51.0274 18.1613 50.5981 17.956C50.1687 17.732 49.7767 17.3493 49.4221 16.808L48.1901 14.876C47.9847 14.5213 47.7701 14.3347 47.5461 14.316C47.3221 14.2973 47.1634 14.288 47.0701 14.288V15.548C47.0701 16.9667 47.4154 17.676 48.1061 17.676C47.7514 17.9187 47.4247 18.068 47.1261 18.124C46.8274 18.18 46.5754 18.208 46.3701 18.208C45.5301 18.208 44.8861 17.9933 44.4381 17.564C44.0087 17.1347 43.7941 16.444 43.7941 15.492V3.676C43.7941 2.948 43.6914 2.39733 43.4861 2.024C43.2994 1.632 43.0474 1.436 42.7301 1.436H41.9461C41.3674 1.436 40.9101 1.576 40.5741 1.856C40.2567 2.11733 40.0421 2.472 39.9301 2.92C39.8181 3.34933 39.7994 3.844 39.8741 4.404C39.9487 4.964 40.0887 5.54267 40.2941 6.14C40.5181 6.71867 40.7887 7.288 41.1061 7.848C41.4234 8.38933 41.7781 8.86533 42.1701 9.276C42.1887 9.276 42.1981 9.28533 42.1981 9.304C42.1981 9.304 42.2074 9.304 42.2261 9.304C42.3381 9.45333 42.4221 9.64 42.4781 9.864C42.5341 10.0693 42.5341 10.284 42.4781 10.508C42.4407 10.732 42.3381 10.956 42.1701 11.18C42.0207 11.3853 41.8061 11.5627 41.5261 11.712C41.4887 11.6187 41.4421 11.5347 41.3861 11.46C41.3487 11.3853 41.3021 11.3013 41.2461 11.208C41.0034 10.76 40.7141 10.3773 40.3781 10.06L40.2381 9.92C39.7714 9.50933 39.2861 9.248 38.7821 9.136C38.2781 9.00533 37.8487 9.024 37.4941 9.192L37.3541 9.248C37.0927 9.37867 36.8874 9.60267 36.7381 9.92C36.6074 10.2373 36.5327 10.62 36.5141 11.068C36.4954 11.4973 36.5421 11.9733 36.6541 12.496C36.7847 13.0187 36.9714 13.5413 37.2141 14.064L37.3541 14.372C37.8207 15.2307 38.2594 15.8933 38.6701 16.36C39.0994 16.808 39.4914 17.1253 39.8461 17.312C40.2007 17.48 40.5274 17.5453 40.8261 17.508C41.1247 17.452 41.3767 17.34 41.5821 17.172C41.8061 17.004 41.9834 16.808 42.1141 16.584C42.2447 16.3413 42.3287 16.136 42.3661 15.968C42.5901 15.9493 42.7301 15.9867 42.7861 16.08C42.8607 16.1547 42.8887 16.2573 42.8701 16.388C42.8514 16.5187 42.7954 16.6587 42.7021 16.808C42.6274 16.9387 42.5434 17.0413 42.4501 17.116C42.1141 17.4147 41.6754 17.676 41.1341 17.9C40.6114 18.1053 40.0327 18.208 39.3981 18.208H39.2861C38.6141 18.208 37.9794 18.0867 37.3821 17.844C36.8034 17.5827 36.2901 17.228 35.8421 16.78C35.3941 16.332 35.0394 15.8187 34.7781 15.24C34.5354 14.6427 34.4141 14.008 34.4141 13.336V13.224C34.4141 12.5707 34.5354 11.9547 34.7781 11.376C35.0207 10.7973 35.3474 10.2933 35.7581 9.864C36.1874 9.43467 36.6821 9.08933 37.2421 8.828C37.8021 8.56667 38.4087 8.41733 39.0621 8.38C38.6327 7.61467 38.3621 6.80267 38.2501 5.944C38.1567 5.06667 38.2221 4.264 38.4461 3.536C38.6701 2.808 39.0714 2.21067 39.6501 1.744C40.2287 1.25867 40.9941 1.016 41.9461 1.016H44.0181C44.1114 0.997333 44.1954 0.997333 44.2701 1.016C44.3447 1.016 44.4194 1.016 44.4941 1.016C45.3341 1.016 45.9687 1.23067 46.3981 1.66C46.8461 2.07067 47.0701 2.752 47.0701 3.704V10.032C47.4807 9.584 47.9567 9.22 48.4981 8.94C49.0394 8.66 49.5621 8.48267 50.0661 8.408C50.5887 8.33333 51.0554 8.37067 51.4661 8.52C51.8954 8.65067 52.1847 8.912 52.3341 9.304C52.4647 9.65867 52.5021 10.0227 52.4461 10.396C52.4087 10.7507 52.2874 11.096 52.0821 11.432C51.8954 11.768 51.6434 12.0853 51.3261 12.384C51.0087 12.6827 50.6541 12.944 50.2621 13.168L51.6901 15.38ZM47.0701 13.756C48.0594 13.476 48.8154 13.028 49.3381 12.412C49.8794 11.7773 50.1034 11.1147 50.0101 10.424C49.9727 10.1067 49.8701 9.892 49.7021 9.78C49.5341 9.64933 49.3287 9.584 49.0861 9.584C48.9554 9.584 48.7781 9.64933 48.5541 9.78C48.3301 9.892 48.1061 10.06 47.8821 10.284C47.6581 10.508 47.4621 10.7787 47.2941 11.096C47.1447 11.4133 47.0701 11.7587 47.0701 12.132V13.756Z" fill="#FDFCFC"/>
</svg>
